<mxfile host="app.diagrams.net" modified="2021-11-08T15:02:47.112Z" agent="5.0 (Windows NT 10.0; Win64; x64) AppleWebKit/537.36 (KHTML, like Gecko) Chrome/95.0.4638.69 Safari/537.36" etag="Krq-qCussoeQENgPKrXs" version="15.7.0" type="github">
  <diagram id="9cvskoMtvE0veRUgXZrD" name="Page-1">
    <mxGraphModel dx="3327" dy="946" grid="1" gridSize="10" guides="1" tooltips="1" connect="1" arrows="1" fold="1" page="1" pageScale="1" pageWidth="827" pageHeight="1169" math="0" shadow="0">
      <root>
        <mxCell id="0" />
        <mxCell id="1" parent="0" />
        <mxCell id="9_sNKZ55_7l1igq3uqOG-10" value="" style="rounded=0;whiteSpace=wrap;html=1;shadow=0;glass=0;dashed=1;labelBackgroundColor=none;sketch=0;fontFamily=Roboto;fontSource=https%3A%2F%2Ffonts.googleapis.com%2Fcss%3Ffamily%3DRoboto;fontSize=10;fontColor=#000000;strokeColor=#BD7000;strokeWidth=2;fillColor=none;" vertex="1" parent="1">
          <mxGeometry x="1630" y="169" width="190" height="520.5" as="geometry" />
        </mxCell>
        <mxCell id="Mus7yZhnYwH2cR40hnjs-162" value="" style="rounded=0;whiteSpace=wrap;html=1;shadow=0;glass=0;dashed=1;labelBackgroundColor=none;sketch=0;fontFamily=Roboto;fontSource=https%3A%2F%2Ffonts.googleapis.com%2Fcss%3Ffamily%3DRoboto;fontSize=10;fontColor=#ffffff;strokeColor=#6F0000;strokeWidth=2;fillColor=none;" parent="1" vertex="1">
          <mxGeometry x="1180" y="169.5" width="180" height="690" as="geometry" />
        </mxCell>
        <mxCell id="Mus7yZhnYwH2cR40hnjs-149" value="" style="rounded=0;whiteSpace=wrap;html=1;shadow=0;glass=0;dashed=1;labelBackgroundColor=none;sketch=0;fontFamily=Roboto;fontSource=https%3A%2F%2Ffonts.googleapis.com%2Fcss%3Ffamily%3DRoboto;fontSize=10;fontColor=#000000;strokeColor=#009900;strokeWidth=2;fillColor=none;" parent="1" vertex="1">
          <mxGeometry x="1400" y="169.5" width="190" height="830" as="geometry" />
        </mxCell>
        <mxCell id="Mus7yZhnYwH2cR40hnjs-107" value="" style="rounded=0;whiteSpace=wrap;html=1;shadow=0;glass=0;dashed=1;labelBackgroundColor=none;sketch=0;fontFamily=Roboto;fontSource=https%3A%2F%2Ffonts.googleapis.com%2Fcss%3Ffamily%3DRoboto;fontSize=10;fontColor=#000000;strokeColor=#1F66B8;strokeWidth=2;fillColor=none;" parent="1" vertex="1">
          <mxGeometry x="960" y="169.5" width="180" height="790" as="geometry" />
        </mxCell>
        <mxCell id="dtXwvVLtn8R11qcHJwp9-1" value="Naufrágio" style="rounded=1;whiteSpace=wrap;html=1;fillColor=#dae8fc;strokeColor=#6c8ebf;shadow=0;sketch=0;glass=0;strokeWidth=2;fontFamily=Roboto;fontSource=https%3A%2F%2Ffonts.googleapis.com%2Fcss%3Ffamily%3DRoboto;" parent="1" vertex="1">
          <mxGeometry x="-280" y="40" width="120" height="40" as="geometry" />
        </mxCell>
        <mxCell id="Mus7yZhnYwH2cR40hnjs-18" style="edgeStyle=orthogonalEdgeStyle;rounded=0;orthogonalLoop=1;jettySize=auto;html=1;exitX=0;exitY=0.5;exitDx=0;exitDy=0;entryX=0.5;entryY=0;entryDx=0;entryDy=0;fontFamily=Roboto;fontColor=#000000;strokeColor=#7EA6E0;fontSource=https%3A%2F%2Ffonts.googleapis.com%2Fcss%3Ffamily%3DRoboto;fontSize=16;strokeWidth=1;" parent="1" source="dtXwvVLtn8R11qcHJwp9-2" target="Mus7yZhnYwH2cR40hnjs-17" edge="1">
          <mxGeometry relative="1" as="geometry" />
        </mxCell>
        <mxCell id="Mus7yZhnYwH2cR40hnjs-54" style="edgeStyle=orthogonalEdgeStyle;rounded=0;orthogonalLoop=1;jettySize=auto;html=1;exitX=0.5;exitY=1;exitDx=0;exitDy=0;entryX=0.5;entryY=0;entryDx=0;entryDy=0;dashed=1;fontFamily=Roboto;fontColor=#FFFFFF;strokeColor=#6C8EBF;fontSource=https%3A%2F%2Ffonts.googleapis.com%2Fcss%3Ffamily%3DRoboto;" parent="1" source="dtXwvVLtn8R11qcHJwp9-2" target="Mus7yZhnYwH2cR40hnjs-28" edge="1">
          <mxGeometry relative="1" as="geometry" />
        </mxCell>
        <mxCell id="Mus7yZhnYwH2cR40hnjs-72" style="edgeStyle=orthogonalEdgeStyle;rounded=0;orthogonalLoop=1;jettySize=auto;html=1;exitX=1;exitY=0.5;exitDx=0;exitDy=0;dashed=1;fontFamily=Roboto;fontColor=#FFFFFF;strokeColor=#6C8EBF;strokeWidth=1;entryX=0.5;entryY=0;entryDx=0;entryDy=0;fontSource=https%3A%2F%2Ffonts.googleapis.com%2Fcss%3Ffamily%3DRoboto;" parent="1" source="dtXwvVLtn8R11qcHJwp9-2" target="Mus7yZhnYwH2cR40hnjs-29" edge="1">
          <mxGeometry relative="1" as="geometry">
            <mxPoint x="-80" y="140" as="targetPoint" />
          </mxGeometry>
        </mxCell>
        <mxCell id="9_sNKZ55_7l1igq3uqOG-14" style="edgeStyle=orthogonalEdgeStyle;rounded=0;orthogonalLoop=1;jettySize=auto;html=1;exitX=0;exitY=0.5;exitDx=0;exitDy=0;fontColor=#000000;endArrow=classic;strokeWidth=1;fontFamily=Roboto;fontSource=https%3A%2F%2Ffonts.googleapis.com%2Fcss%3Ffamily%3DRoboto;fontSize=16;strokeColor=#7EA6E0;" edge="1" parent="1" source="dtXwvVLtn8R11qcHJwp9-2" target="9_sNKZ55_7l1igq3uqOG-12">
          <mxGeometry relative="1" as="geometry" />
        </mxCell>
        <mxCell id="dtXwvVLtn8R11qcHJwp9-2" value="Andando pela Selva" style="rounded=1;whiteSpace=wrap;html=1;fillColor=#dae8fc;strokeColor=#6c8ebf;strokeWidth=2;fontFamily=Roboto;fontSource=https%3A%2F%2Ffonts.googleapis.com%2Fcss%3Ffamily%3DRoboto;" parent="1" vertex="1">
          <mxGeometry x="-280" y="120" width="120" height="40" as="geometry" />
        </mxCell>
        <mxCell id="dtXwvVLtn8R11qcHJwp9-3" value="" style="endArrow=classic;html=1;rounded=0;entryX=0.5;entryY=0;entryDx=0;entryDy=0;exitX=0.5;exitY=1;exitDx=0;exitDy=0;strokeColor=#6C8EBF;fontFamily=Roboto;fontSource=https%3A%2F%2Ffonts.googleapis.com%2Fcss%3Ffamily%3DRoboto;" parent="1" source="dtXwvVLtn8R11qcHJwp9-1" target="dtXwvVLtn8R11qcHJwp9-2" edge="1">
          <mxGeometry width="50" height="50" relative="1" as="geometry">
            <mxPoint x="-280" y="210" as="sourcePoint" />
            <mxPoint x="-160" y="360" as="targetPoint" />
          </mxGeometry>
        </mxCell>
        <mxCell id="dtXwvVLtn8R11qcHJwp9-7" value="&lt;font color=&quot;#ffffff&quot;&gt;Os Piratas estão com a Sildarine de Shar&lt;/font&gt;" style="rounded=1;whiteSpace=wrap;html=1;shadow=0;glass=0;labelBackgroundColor=none;sketch=0;fontFamily=Roboto;fillColor=#1F66B8;spacingLeft=11;spacingRight=11;strokeColor=#007FFF;strokeWidth=2;fontSource=https%3A%2F%2Ffonts.googleapis.com%2Fcss%3Ffamily%3DRoboto;" parent="1" vertex="1">
          <mxGeometry x="984" y="207.5" width="139" height="50" as="geometry" />
        </mxCell>
        <mxCell id="Mus7yZhnYwH2cR40hnjs-100" style="edgeStyle=orthogonalEdgeStyle;rounded=0;orthogonalLoop=1;jettySize=auto;html=1;exitX=0.5;exitY=1;exitDx=0;exitDy=0;entryX=0.5;entryY=0;entryDx=0;entryDy=0;fontFamily=Roboto;fontSource=https%3A%2F%2Ffonts.googleapis.com%2Fcss%3Ffamily%3DRoboto;fontSize=10;fontColor=#000000;strokeColor=#1F66B8;strokeWidth=1;" parent="1" source="Mus7yZhnYwH2cR40hnjs-1" target="Mus7yZhnYwH2cR40hnjs-3" edge="1">
          <mxGeometry relative="1" as="geometry" />
        </mxCell>
        <mxCell id="Mus7yZhnYwH2cR40hnjs-1" value="&lt;font color=&quot;#ffffff&quot;&gt;A Sildarine de Shar foi roubada pelos &quot;guardiões&quot;&lt;/font&gt;" style="rounded=1;whiteSpace=wrap;html=1;shadow=0;glass=0;labelBackgroundColor=none;sketch=0;fontFamily=Roboto;fillColor=#1F66B8;spacingLeft=11;spacingRight=11;strokeColor=#007FFF;strokeWidth=2;fontSource=https%3A%2F%2Ffonts.googleapis.com%2Fcss%3Ffamily%3DRoboto;" parent="1" vertex="1">
          <mxGeometry x="984" y="287.5" width="139" height="60" as="geometry" />
        </mxCell>
        <mxCell id="Mus7yZhnYwH2cR40hnjs-2" value="" style="endArrow=classic;html=1;rounded=0;fontFamily=Roboto;fontColor=#FFFFFF;exitX=0.5;exitY=1;exitDx=0;exitDy=0;entryX=0.5;entryY=0;entryDx=0;entryDy=0;strokeColor=#1F66B8;fontSource=https%3A%2F%2Ffonts.googleapis.com%2Fcss%3Ffamily%3DRoboto;" parent="1" source="dtXwvVLtn8R11qcHJwp9-7" target="Mus7yZhnYwH2cR40hnjs-1" edge="1">
          <mxGeometry width="50" height="50" relative="1" as="geometry">
            <mxPoint x="923" y="467.5" as="sourcePoint" />
            <mxPoint x="973" y="417.5" as="targetPoint" />
          </mxGeometry>
        </mxCell>
        <mxCell id="Mus7yZhnYwH2cR40hnjs-101" style="edgeStyle=orthogonalEdgeStyle;rounded=0;orthogonalLoop=1;jettySize=auto;html=1;exitX=0.5;exitY=1;exitDx=0;exitDy=0;entryX=0.5;entryY=0;entryDx=0;entryDy=0;fontFamily=Roboto;fontSource=https%3A%2F%2Ffonts.googleapis.com%2Fcss%3Ffamily%3DRoboto;fontSize=10;fontColor=#000000;strokeColor=#1F66B8;strokeWidth=1;" parent="1" source="Mus7yZhnYwH2cR40hnjs-3" target="Mus7yZhnYwH2cR40hnjs-87" edge="1">
          <mxGeometry relative="1" as="geometry" />
        </mxCell>
        <mxCell id="Mus7yZhnYwH2cR40hnjs-3" value="&lt;font color=&quot;#ffffff&quot;&gt;Os Filhos de Sihiel estão na ilha em busca da Sildarine de Shar&lt;/font&gt;" style="rounded=1;whiteSpace=wrap;html=1;shadow=0;glass=0;labelBackgroundColor=none;sketch=0;fontFamily=Roboto;fillColor=#1F66B8;spacingLeft=11;spacingRight=11;strokeColor=#007FFF;strokeWidth=2;fontSource=https%3A%2F%2Ffonts.googleapis.com%2Fcss%3Ffamily%3DRoboto;" parent="1" vertex="1">
          <mxGeometry x="984" y="379.5" width="139" height="80" as="geometry" />
        </mxCell>
        <mxCell id="Mus7yZhnYwH2cR40hnjs-5" value="&lt;font color=&quot;#ffffff&quot;&gt;Os yuan-ti estão atrás da Sildarine de Shar também&lt;/font&gt;" style="rounded=1;whiteSpace=wrap;html=1;shadow=0;glass=0;labelBackgroundColor=none;sketch=0;fontFamily=Roboto;fillColor=#f0a30a;spacingLeft=11;spacingRight=11;strokeColor=#BD7000;fontColor=#000000;strokeWidth=2;fontSource=https%3A%2F%2Ffonts.googleapis.com%2Fcss%3Ffamily%3DRoboto;" parent="1" vertex="1">
          <mxGeometry x="1655.5" y="209.5" width="139" height="80" as="geometry" />
        </mxCell>
        <mxCell id="Mus7yZhnYwH2cR40hnjs-122" style="edgeStyle=orthogonalEdgeStyle;rounded=0;orthogonalLoop=1;jettySize=auto;html=1;exitX=0.5;exitY=1;exitDx=0;exitDy=0;entryX=0.5;entryY=0;entryDx=0;entryDy=0;fontFamily=Roboto;fontSource=https%3A%2F%2Ffonts.googleapis.com%2Fcss%3Ffamily%3DRoboto;fontSize=10;fontColor=#000000;strokeColor=#009900;strokeWidth=1;" parent="1" source="Mus7yZhnYwH2cR40hnjs-6" target="Mus7yZhnYwH2cR40hnjs-7" edge="1">
          <mxGeometry relative="1" as="geometry" />
        </mxCell>
        <mxCell id="Mus7yZhnYwH2cR40hnjs-6" value="&lt;font color=&quot;#ffffff&quot;&gt;Os Ubtao e a lenda de Dendar&lt;/font&gt;" style="rounded=1;whiteSpace=wrap;html=1;shadow=0;glass=0;labelBackgroundColor=none;sketch=0;fontFamily=Roboto;fillColor=#008a00;spacingLeft=11;spacingRight=11;strokeColor=#005700;fontColor=#ffffff;strokeWidth=2;fontSource=https%3A%2F%2Ffonts.googleapis.com%2Fcss%3Ffamily%3DRoboto;" parent="1" vertex="1">
          <mxGeometry x="1427" y="209.5" width="139" height="50" as="geometry" />
        </mxCell>
        <mxCell id="Mus7yZhnYwH2cR40hnjs-123" style="edgeStyle=orthogonalEdgeStyle;rounded=0;orthogonalLoop=1;jettySize=auto;html=1;exitX=0.5;exitY=1;exitDx=0;exitDy=0;entryX=0.5;entryY=0;entryDx=0;entryDy=0;fontFamily=Roboto;fontSource=https%3A%2F%2Ffonts.googleapis.com%2Fcss%3Ffamily%3DRoboto;fontSize=10;fontColor=#000000;strokeColor=#009900;strokeWidth=1;" parent="1" source="Mus7yZhnYwH2cR40hnjs-7" target="Mus7yZhnYwH2cR40hnjs-8" edge="1">
          <mxGeometry relative="1" as="geometry" />
        </mxCell>
        <mxCell id="Mus7yZhnYwH2cR40hnjs-7" value="&lt;font color=&quot;#ffffff&quot;&gt;Uma grande civilização de yuan-ti (Hss&#39;tssa) existiu&lt;/font&gt;" style="rounded=1;whiteSpace=wrap;html=1;shadow=0;glass=0;labelBackgroundColor=none;sketch=0;fontFamily=Roboto;fillColor=#008a00;spacingLeft=11;spacingRight=11;strokeColor=#005700;fontColor=#ffffff;strokeWidth=2;fontSource=https%3A%2F%2Ffonts.googleapis.com%2Fcss%3Ffamily%3DRoboto;" parent="1" vertex="1">
          <mxGeometry x="1427" y="287.5" width="139" height="60" as="geometry" />
        </mxCell>
        <mxCell id="Mus7yZhnYwH2cR40hnjs-124" style="edgeStyle=orthogonalEdgeStyle;rounded=0;orthogonalLoop=1;jettySize=auto;html=1;exitX=0.5;exitY=1;exitDx=0;exitDy=0;entryX=0.5;entryY=0;entryDx=0;entryDy=0;fontFamily=Roboto;fontSource=https%3A%2F%2Ffonts.googleapis.com%2Fcss%3Ffamily%3DRoboto;fontSize=10;fontColor=#000000;strokeColor=#009900;strokeWidth=1;" parent="1" source="Mus7yZhnYwH2cR40hnjs-8" target="Mus7yZhnYwH2cR40hnjs-9" edge="1">
          <mxGeometry relative="1" as="geometry" />
        </mxCell>
        <mxCell id="Mus7yZhnYwH2cR40hnjs-8" value="&lt;font color=&quot;#ffffff&quot;&gt;Shar foi&amp;nbsp;até a ilha cooptar os yuan-ti&lt;/font&gt;" style="rounded=1;whiteSpace=wrap;html=1;shadow=0;glass=0;labelBackgroundColor=none;sketch=0;fontFamily=Roboto;fillColor=#008a00;spacingLeft=11;spacingRight=11;strokeColor=#005700;fontColor=#ffffff;strokeWidth=2;fontSource=https%3A%2F%2Ffonts.googleapis.com%2Fcss%3Ffamily%3DRoboto;" parent="1" vertex="1">
          <mxGeometry x="1427" y="379.5" width="139" height="50" as="geometry" />
        </mxCell>
        <mxCell id="Mus7yZhnYwH2cR40hnjs-125" style="edgeStyle=orthogonalEdgeStyle;rounded=0;orthogonalLoop=1;jettySize=auto;html=1;exitX=0.5;exitY=1;exitDx=0;exitDy=0;entryX=0.5;entryY=0;entryDx=0;entryDy=0;fontFamily=Roboto;fontSource=https%3A%2F%2Ffonts.googleapis.com%2Fcss%3Ffamily%3DRoboto;fontSize=10;fontColor=#000000;strokeColor=#009900;strokeWidth=1;" parent="1" source="Mus7yZhnYwH2cR40hnjs-9" target="Mus7yZhnYwH2cR40hnjs-10" edge="1">
          <mxGeometry relative="1" as="geometry" />
        </mxCell>
        <mxCell id="Mus7yZhnYwH2cR40hnjs-9" value="&lt;font color=&quot;#ffffff&quot;&gt;Os yuan-ti se tornaram povo cobra&lt;/font&gt;" style="rounded=1;whiteSpace=wrap;html=1;shadow=0;glass=0;labelBackgroundColor=none;sketch=0;fontFamily=Roboto;fillColor=#008a00;spacingLeft=11;spacingRight=11;strokeColor=#005700;fontColor=#ffffff;strokeWidth=2;fontSource=https%3A%2F%2Ffonts.googleapis.com%2Fcss%3Ffamily%3DRoboto;" parent="1" vertex="1">
          <mxGeometry x="1427" y="461.5" width="139" height="50" as="geometry" />
        </mxCell>
        <mxCell id="Mus7yZhnYwH2cR40hnjs-126" style="edgeStyle=orthogonalEdgeStyle;rounded=0;orthogonalLoop=1;jettySize=auto;html=1;exitX=0.5;exitY=1;exitDx=0;exitDy=0;entryX=0.5;entryY=0;entryDx=0;entryDy=0;fontFamily=Roboto;fontSource=https%3A%2F%2Ffonts.googleapis.com%2Fcss%3Ffamily%3DRoboto;fontSize=10;fontColor=#000000;strokeColor=#009900;strokeWidth=1;" parent="1" source="Mus7yZhnYwH2cR40hnjs-10" target="Mus7yZhnYwH2cR40hnjs-11" edge="1">
          <mxGeometry relative="1" as="geometry" />
        </mxCell>
        <mxCell id="Mus7yZhnYwH2cR40hnjs-10" value="&lt;font color=&quot;#ffffff&quot;&gt;Os barae derrotaram o império Hss&#39;tssa&lt;/font&gt;" style="rounded=1;whiteSpace=wrap;html=1;shadow=0;glass=0;labelBackgroundColor=none;sketch=0;fontFamily=Roboto;fillColor=#008a00;spacingLeft=11;spacingRight=11;strokeColor=#005700;fontColor=#ffffff;strokeWidth=2;fontSource=https%3A%2F%2Ffonts.googleapis.com%2Fcss%3Ffamily%3DRoboto;" parent="1" vertex="1">
          <mxGeometry x="1427" y="544" width="139" height="50" as="geometry" />
        </mxCell>
        <mxCell id="Mus7yZhnYwH2cR40hnjs-127" style="edgeStyle=orthogonalEdgeStyle;rounded=0;orthogonalLoop=1;jettySize=auto;html=1;exitX=0.5;exitY=1;exitDx=0;exitDy=0;entryX=0.5;entryY=0;entryDx=0;entryDy=0;fontFamily=Roboto;fontSource=https%3A%2F%2Ffonts.googleapis.com%2Fcss%3Ffamily%3DRoboto;fontSize=10;fontColor=#000000;strokeColor=#009900;strokeWidth=1;" parent="1" source="Mus7yZhnYwH2cR40hnjs-11" target="Mus7yZhnYwH2cR40hnjs-14" edge="1">
          <mxGeometry relative="1" as="geometry" />
        </mxCell>
        <mxCell id="Mus7yZhnYwH2cR40hnjs-11" value="&lt;font color=&quot;#ffffff&quot;&gt;Os eshowe viraram as costas para os Ubtao e Alisandra os deixou&lt;/font&gt;" style="rounded=1;whiteSpace=wrap;html=1;shadow=0;glass=0;labelBackgroundColor=none;sketch=0;fontFamily=Roboto;fillColor=#008a00;spacingLeft=11;spacingRight=11;strokeColor=#005700;fontColor=#ffffff;strokeWidth=2;fontSource=https%3A%2F%2Ffonts.googleapis.com%2Fcss%3Ffamily%3DRoboto;" parent="1" vertex="1">
          <mxGeometry x="1427" y="629.5" width="139" height="80" as="geometry" />
        </mxCell>
        <mxCell id="Mus7yZhnYwH2cR40hnjs-129" style="edgeStyle=orthogonalEdgeStyle;rounded=0;orthogonalLoop=1;jettySize=auto;html=1;exitX=0.5;exitY=1;exitDx=0;exitDy=0;entryX=0.5;entryY=0;entryDx=0;entryDy=0;fontFamily=Roboto;fontSource=https%3A%2F%2Ffonts.googleapis.com%2Fcss%3Ffamily%3DRoboto;fontSize=10;fontColor=#000000;strokeColor=#009900;strokeWidth=1;" parent="1" source="Mus7yZhnYwH2cR40hnjs-12" target="Mus7yZhnYwH2cR40hnjs-121" edge="1">
          <mxGeometry relative="1" as="geometry" />
        </mxCell>
        <mxCell id="Mus7yZhnYwH2cR40hnjs-12" value="&lt;font color=&quot;#ffffff&quot;&gt;Mezro desapareceu&lt;/font&gt;" style="rounded=1;whiteSpace=wrap;html=1;shadow=0;glass=0;labelBackgroundColor=none;sketch=0;fontFamily=Roboto;fillColor=#008a00;spacingLeft=11;spacingRight=11;strokeColor=#005700;fontColor=#ffffff;strokeWidth=2;fontSource=https%3A%2F%2Ffonts.googleapis.com%2Fcss%3Ffamily%3DRoboto;" parent="1" vertex="1">
          <mxGeometry x="1427" y="839.5" width="139" height="50" as="geometry" />
        </mxCell>
        <mxCell id="Mus7yZhnYwH2cR40hnjs-104" style="edgeStyle=orthogonalEdgeStyle;rounded=0;orthogonalLoop=1;jettySize=auto;html=1;exitX=0.5;exitY=1;exitDx=0;exitDy=0;entryX=0.5;entryY=0;entryDx=0;entryDy=0;fontFamily=Roboto;fontSource=https%3A%2F%2Ffonts.googleapis.com%2Fcss%3Ffamily%3DRoboto;fontSize=10;fontColor=#000000;strokeColor=#1F66B8;strokeWidth=1;" parent="1" source="Mus7yZhnYwH2cR40hnjs-13" target="Mus7yZhnYwH2cR40hnjs-89" edge="1">
          <mxGeometry relative="1" as="geometry" />
        </mxCell>
        <mxCell id="Mus7yZhnYwH2cR40hnjs-13" value="&lt;font color=&quot;#ffffff&quot;&gt;Os elfos tomaram Omu&lt;/font&gt;" style="rounded=1;whiteSpace=wrap;html=1;shadow=0;glass=0;labelBackgroundColor=none;sketch=0;fontFamily=Roboto;fillColor=#1F66B8;spacingLeft=11;spacingRight=11;strokeColor=#007FFF;strokeWidth=2;fontSource=https%3A%2F%2Ffonts.googleapis.com%2Fcss%3Ffamily%3DRoboto;" parent="1" vertex="1">
          <mxGeometry x="984" y="694.5" width="139" height="50" as="geometry" />
        </mxCell>
        <mxCell id="Mus7yZhnYwH2cR40hnjs-128" style="edgeStyle=orthogonalEdgeStyle;rounded=0;orthogonalLoop=1;jettySize=auto;html=1;exitX=0.5;exitY=1;exitDx=0;exitDy=0;entryX=0.5;entryY=0;entryDx=0;entryDy=0;fontFamily=Roboto;fontSource=https%3A%2F%2Ffonts.googleapis.com%2Fcss%3Ffamily%3DRoboto;fontSize=10;fontColor=#000000;strokeColor=#009900;strokeWidth=1;" parent="1" source="Mus7yZhnYwH2cR40hnjs-14" target="Mus7yZhnYwH2cR40hnjs-12" edge="1">
          <mxGeometry relative="1" as="geometry" />
        </mxCell>
        <mxCell id="Mus7yZhnYwH2cR40hnjs-14" value="&lt;font color=&quot;#ffffff&quot;&gt;Os Ubtao foram aprisionados&lt;/font&gt;" style="rounded=1;whiteSpace=wrap;html=1;shadow=0;glass=0;labelBackgroundColor=none;sketch=0;fontFamily=Roboto;fillColor=#008a00;spacingLeft=11;spacingRight=11;strokeColor=#005700;fontColor=#ffffff;strokeWidth=2;fontSource=https%3A%2F%2Ffonts.googleapis.com%2Fcss%3Ffamily%3DRoboto;" parent="1" vertex="1">
          <mxGeometry x="1427" y="749.5" width="139" height="50" as="geometry" />
        </mxCell>
        <mxCell id="Mus7yZhnYwH2cR40hnjs-15" value="&lt;font color=&quot;#ffffff&quot;&gt;Ras Nsi foi preso por 1500 anos&lt;/font&gt;" style="rounded=1;whiteSpace=wrap;html=1;shadow=0;glass=0;labelBackgroundColor=none;sketch=0;fontFamily=Roboto;fillColor=#f0a30a;spacingLeft=11;spacingRight=11;strokeColor=#BD7000;fontColor=#000000;strokeWidth=2;fontSource=https%3A%2F%2Ffonts.googleapis.com%2Fcss%3Ffamily%3DRoboto;" parent="1" vertex="1">
          <mxGeometry x="1655.5" y="419.5" width="139" height="60" as="geometry" />
        </mxCell>
        <mxCell id="Mus7yZhnYwH2cR40hnjs-63" style="edgeStyle=orthogonalEdgeStyle;rounded=0;orthogonalLoop=1;jettySize=auto;html=1;exitX=1;exitY=0.5;exitDx=0;exitDy=0;dashed=1;fontFamily=Roboto;fontColor=#FFFFFF;strokeColor=#6C8EBF;strokeWidth=1;fontSource=https%3A%2F%2Ffonts.googleapis.com%2Fcss%3Ffamily%3DRoboto;" parent="1" source="Mus7yZhnYwH2cR40hnjs-17" target="Mus7yZhnYwH2cR40hnjs-62" edge="1">
          <mxGeometry relative="1" as="geometry" />
        </mxCell>
        <mxCell id="Mus7yZhnYwH2cR40hnjs-67" style="edgeStyle=orthogonalEdgeStyle;rounded=0;orthogonalLoop=1;jettySize=auto;html=1;exitX=0.5;exitY=1;exitDx=0;exitDy=0;entryX=0.5;entryY=0;entryDx=0;entryDy=0;dashed=1;fontFamily=Roboto;fontColor=#000000;strokeColor=#7EA6E0;strokeWidth=1;fontSource=https%3A%2F%2Ffonts.googleapis.com%2Fcss%3Ffamily%3DRoboto;fontSize=16;" parent="1" source="Mus7yZhnYwH2cR40hnjs-17" target="Mus7yZhnYwH2cR40hnjs-25" edge="1">
          <mxGeometry relative="1" as="geometry" />
        </mxCell>
        <mxCell id="Mus7yZhnYwH2cR40hnjs-17" value="Tanaroa" style="rounded=1;whiteSpace=wrap;html=1;fillColor=#dae8fc;strokeColor=#6c8ebf;strokeWidth=2;fontFamily=Roboto;fontSource=https%3A%2F%2Ffonts.googleapis.com%2Fcss%3Ffamily%3DRoboto;" parent="1" vertex="1">
          <mxGeometry x="-680" y="200" width="120" height="40" as="geometry" />
        </mxCell>
        <mxCell id="Mus7yZhnYwH2cR40hnjs-75" style="edgeStyle=orthogonalEdgeStyle;rounded=0;orthogonalLoop=1;jettySize=auto;html=1;exitX=0.25;exitY=1;exitDx=0;exitDy=0;entryX=0.5;entryY=0;entryDx=0;entryDy=0;dashed=1;fontFamily=Roboto;fontColor=#FFFFFF;strokeColor=#6C8EBF;strokeWidth=1;fontSource=https%3A%2F%2Ffonts.googleapis.com%2Fcss%3Ffamily%3DRoboto;" parent="1" source="Mus7yZhnYwH2cR40hnjs-19" target="Mus7yZhnYwH2cR40hnjs-36" edge="1">
          <mxGeometry relative="1" as="geometry" />
        </mxCell>
        <mxCell id="Mus7yZhnYwH2cR40hnjs-76" style="edgeStyle=orthogonalEdgeStyle;rounded=0;orthogonalLoop=1;jettySize=auto;html=1;exitX=0.75;exitY=1;exitDx=0;exitDy=0;entryX=0.5;entryY=0;entryDx=0;entryDy=0;dashed=1;fontFamily=Roboto;fontColor=#FFFFFF;strokeColor=#6C8EBF;strokeWidth=1;fontSource=https%3A%2F%2Ffonts.googleapis.com%2Fcss%3Ffamily%3DRoboto;" parent="1" source="Mus7yZhnYwH2cR40hnjs-19" target="Mus7yZhnYwH2cR40hnjs-46" edge="1">
          <mxGeometry relative="1" as="geometry" />
        </mxCell>
        <mxCell id="Mus7yZhnYwH2cR40hnjs-238" style="edgeStyle=orthogonalEdgeStyle;rounded=0;orthogonalLoop=1;jettySize=auto;html=1;exitX=1;exitY=0.5;exitDx=0;exitDy=0;entryX=0.75;entryY=0;entryDx=0;entryDy=0;dashed=1;fontFamily=Roboto;fontSize=11;fontColor=#FFFFFF;endArrow=classic;strokeColor=#6C8EBF;strokeWidth=1;fontSource=https%3A%2F%2Ffonts.googleapis.com%2Fcss%3Ffamily%3DRoboto;" parent="1" source="Mus7yZhnYwH2cR40hnjs-19" target="Mus7yZhnYwH2cR40hnjs-37" edge="1">
          <mxGeometry relative="1" as="geometry">
            <Array as="points">
              <mxPoint x="630" y="220" />
              <mxPoint x="630" y="400" />
              <mxPoint x="570" y="400" />
            </Array>
          </mxGeometry>
        </mxCell>
        <mxCell id="Mus7yZhnYwH2cR40hnjs-19" value="Destroços do Narwhall" style="rounded=1;whiteSpace=wrap;html=1;fillColor=#dae8fc;strokeColor=#6c8ebf;strokeWidth=2;fontFamily=Roboto;fontSource=https%3A%2F%2Ffonts.googleapis.com%2Fcss%3Ffamily%3DRoboto;" parent="1" vertex="1">
          <mxGeometry x="400" y="200" width="120" height="40" as="geometry" />
        </mxCell>
        <mxCell id="Mus7yZhnYwH2cR40hnjs-23" value="Libertália" style="rounded=1;whiteSpace=wrap;html=1;fillColor=#dae8fc;strokeColor=#6c8ebf;strokeWidth=2;fontFamily=Roboto;fontSource=https%3A%2F%2Ffonts.googleapis.com%2Fcss%3Ffamily%3DRoboto;" parent="1" vertex="1">
          <mxGeometry x="-760" y="460" width="120" height="40" as="geometry" />
        </mxCell>
        <mxCell id="Mus7yZhnYwH2cR40hnjs-50" style="edgeStyle=orthogonalEdgeStyle;rounded=0;orthogonalLoop=1;jettySize=auto;html=1;exitX=0.75;exitY=1;exitDx=0;exitDy=0;dashed=1;fontFamily=Roboto;fontColor=#000000;strokeColor=#7EA6E0;entryX=0.5;entryY=0;entryDx=0;entryDy=0;fontSource=https%3A%2F%2Ffonts.googleapis.com%2Fcss%3Ffamily%3DRoboto;fontSize=16;strokeWidth=1;" parent="1" source="Mus7yZhnYwH2cR40hnjs-25" target="Mus7yZhnYwH2cR40hnjs-26" edge="1">
          <mxGeometry relative="1" as="geometry">
            <mxPoint x="-570" y="440" as="targetPoint" />
          </mxGeometry>
        </mxCell>
        <mxCell id="Mus7yZhnYwH2cR40hnjs-66" style="edgeStyle=orthogonalEdgeStyle;rounded=0;orthogonalLoop=1;jettySize=auto;html=1;exitX=0.25;exitY=1;exitDx=0;exitDy=0;entryX=0.5;entryY=0;entryDx=0;entryDy=0;dashed=1;fontFamily=Roboto;fontColor=#000000;strokeColor=#7EA6E0;strokeWidth=1;fontSource=https%3A%2F%2Ffonts.googleapis.com%2Fcss%3Ffamily%3DRoboto;fontSize=16;" parent="1" source="Mus7yZhnYwH2cR40hnjs-25" target="Mus7yZhnYwH2cR40hnjs-22" edge="1">
          <mxGeometry relative="1" as="geometry" />
        </mxCell>
        <mxCell id="Mus7yZhnYwH2cR40hnjs-25" value="Acampamento Pirata" style="rounded=1;whiteSpace=wrap;html=1;fillColor=#dae8fc;strokeColor=#6c8ebf;strokeWidth=2;fontFamily=Roboto;fontSource=https%3A%2F%2Ffonts.googleapis.com%2Fcss%3Ffamily%3DRoboto;" parent="1" vertex="1">
          <mxGeometry x="-680" y="320" width="120" height="40" as="geometry" />
        </mxCell>
        <mxCell id="Mus7yZhnYwH2cR40hnjs-26" value="Yellyark" style="rounded=1;whiteSpace=wrap;html=1;fillColor=#dae8fc;strokeColor=#6c8ebf;strokeWidth=2;fontFamily=Roboto;fontSource=https%3A%2F%2Ffonts.googleapis.com%2Fcss%3Ffamily%3DRoboto;" parent="1" vertex="1">
          <mxGeometry x="-600" y="440" width="120" height="40" as="geometry" />
        </mxCell>
        <mxCell id="Mus7yZhnYwH2cR40hnjs-27" value="Shilku" style="rounded=1;whiteSpace=wrap;html=1;fillColor=#dae8fc;strokeColor=#6c8ebf;strokeWidth=2;fontFamily=Roboto;fontSource=https%3A%2F%2Ffonts.googleapis.com%2Fcss%3Ffamily%3DRoboto;" parent="1" vertex="1">
          <mxGeometry x="-120" y="440" width="120" height="40" as="geometry" />
        </mxCell>
        <mxCell id="Mus7yZhnYwH2cR40hnjs-55" style="edgeStyle=orthogonalEdgeStyle;rounded=0;orthogonalLoop=1;jettySize=auto;html=1;exitX=0.5;exitY=1;exitDx=0;exitDy=0;entryX=0.5;entryY=0;entryDx=0;entryDy=0;fontFamily=Roboto;fontColor=#FFFFFF;strokeColor=#FF0080;dashed=1;dashPattern=1 2;strokeWidth=3;fontSource=https%3A%2F%2Ffonts.googleapis.com%2Fcss%3Ffamily%3DRoboto;" parent="1" source="Mus7yZhnYwH2cR40hnjs-28" target="Mus7yZhnYwH2cR40hnjs-52" edge="1">
          <mxGeometry relative="1" as="geometry" />
        </mxCell>
        <mxCell id="Mus7yZhnYwH2cR40hnjs-68" style="edgeStyle=orthogonalEdgeStyle;rounded=0;orthogonalLoop=1;jettySize=auto;html=1;exitX=0;exitY=0.25;exitDx=0;exitDy=0;entryX=0.75;entryY=0;entryDx=0;entryDy=0;dashed=1;fontFamily=Roboto;fontColor=#FFFFFF;strokeColor=#FF0080;strokeWidth=3;dashPattern=1 2;fontSource=https%3A%2F%2Ffonts.googleapis.com%2Fcss%3Ffamily%3DRoboto;" parent="1" source="Mus7yZhnYwH2cR40hnjs-28" target="Mus7yZhnYwH2cR40hnjs-62" edge="1">
          <mxGeometry relative="1" as="geometry" />
        </mxCell>
        <mxCell id="Mus7yZhnYwH2cR40hnjs-69" style="edgeStyle=orthogonalEdgeStyle;rounded=0;orthogonalLoop=1;jettySize=auto;html=1;exitX=1;exitY=0.5;exitDx=0;exitDy=0;entryX=0.5;entryY=0;entryDx=0;entryDy=0;dashed=1;dashPattern=1 2;fontFamily=Roboto;fontColor=#FFFFFF;strokeColor=#FF0080;strokeWidth=3;fontSource=https%3A%2F%2Ffonts.googleapis.com%2Fcss%3Ffamily%3DRoboto;" parent="1" source="Mus7yZhnYwH2cR40hnjs-28" target="Mus7yZhnYwH2cR40hnjs-27" edge="1">
          <mxGeometry relative="1" as="geometry" />
        </mxCell>
        <mxCell id="Mus7yZhnYwH2cR40hnjs-71" style="edgeStyle=orthogonalEdgeStyle;rounded=0;orthogonalLoop=1;jettySize=auto;html=1;exitX=0;exitY=0.75;exitDx=0;exitDy=0;entryX=0.5;entryY=0;entryDx=0;entryDy=0;dashed=1;dashPattern=1 2;fontFamily=Roboto;fontColor=#FFFFFF;strokeColor=#FF0080;strokeWidth=3;fontSource=https%3A%2F%2Ffonts.googleapis.com%2Fcss%3Ffamily%3DRoboto;" parent="1" source="Mus7yZhnYwH2cR40hnjs-28" target="Mus7yZhnYwH2cR40hnjs-30" edge="1">
          <mxGeometry relative="1" as="geometry" />
        </mxCell>
        <mxCell id="Mus7yZhnYwH2cR40hnjs-136" style="edgeStyle=orthogonalEdgeStyle;rounded=0;orthogonalLoop=1;jettySize=auto;html=1;exitX=1;exitY=0.25;exitDx=0;exitDy=0;entryX=0.5;entryY=0;entryDx=0;entryDy=0;fontFamily=Roboto;fontSource=https%3A%2F%2Ffonts.googleapis.com%2Fcss%3Ffamily%3DRoboto;fontSize=10;fontColor=#000000;strokeColor=#7EA6E0;strokeWidth=1;dashed=1;" parent="1" source="Mus7yZhnYwH2cR40hnjs-28" target="Mus7yZhnYwH2cR40hnjs-39" edge="1">
          <mxGeometry relative="1" as="geometry" />
        </mxCell>
        <mxCell id="Mus7yZhnYwH2cR40hnjs-28" value="Dedo de Fogo #1" style="rounded=1;whiteSpace=wrap;html=1;fillColor=#d80073;strokeColor=#A50040;fontColor=#ffffff;strokeWidth=3;fontFamily=Roboto;fontSource=https%3A%2F%2Ffonts.googleapis.com%2Fcss%3Ffamily%3DRoboto;" parent="1" vertex="1">
          <mxGeometry x="-280" y="200" width="120" height="40" as="geometry" />
        </mxCell>
        <mxCell id="Mus7yZhnYwH2cR40hnjs-29" value="Porto Castigliar" style="rounded=1;whiteSpace=wrap;html=1;fillColor=#dae8fc;strokeColor=#6c8ebf;strokeWidth=2;fontFamily=Roboto;fontSource=https%3A%2F%2Ffonts.googleapis.com%2Fcss%3Ffamily%3DRoboto;" parent="1" vertex="1">
          <mxGeometry x="240" y="200" width="120" height="40" as="geometry" />
        </mxCell>
        <mxCell id="Mus7yZhnYwH2cR40hnjs-30" value="Sheirtalar" style="rounded=1;whiteSpace=wrap;html=1;fillColor=#dae8fc;strokeColor=#6c8ebf;strokeWidth=2;fontFamily=Roboto;fontSource=https%3A%2F%2Ffonts.googleapis.com%2Fcss%3Ffamily%3DRoboto;" parent="1" vertex="1">
          <mxGeometry x="-440" y="440" width="120" height="40" as="geometry" />
        </mxCell>
        <mxCell id="Mus7yZhnYwH2cR40hnjs-242" style="edgeStyle=orthogonalEdgeStyle;rounded=0;sketch=0;orthogonalLoop=1;jettySize=auto;html=1;exitX=0;exitY=0.25;exitDx=0;exitDy=0;entryX=0.75;entryY=0;entryDx=0;entryDy=0;shadow=0;dashed=1;dashPattern=1 1;fontFamily=Roboto;fontSource=https%3A%2F%2Ffonts.googleapis.com%2Fcss%3Ffamily%3DRoboto;fontSize=16;fontColor=#FFFFFF;startArrow=none;startFill=0;endArrow=halfCircle;endFill=0;strokeColor=#CDA2BE;strokeWidth=3;" parent="1" source="Mus7yZhnYwH2cR40hnjs-31" target="Mus7yZhnYwH2cR40hnjs-30" edge="1">
          <mxGeometry relative="1" as="geometry">
            <Array as="points">
              <mxPoint x="280" y="450" />
              <mxPoint x="280" y="630" />
              <mxPoint x="-300" y="630" />
              <mxPoint x="-300" y="410" />
              <mxPoint x="-350" y="410" />
            </Array>
          </mxGeometry>
        </mxCell>
        <mxCell id="Mus7yZhnYwH2cR40hnjs-31" value="Mezro" style="rounded=1;whiteSpace=wrap;html=1;fillColor=#dae8fc;strokeColor=#6c8ebf;strokeWidth=2;fontFamily=Roboto;fontSource=https%3A%2F%2Ffonts.googleapis.com%2Fcss%3Ffamily%3DRoboto;" parent="1" vertex="1">
          <mxGeometry x="320" y="440" width="120" height="40" as="geometry" />
        </mxCell>
        <mxCell id="Mus7yZhnYwH2cR40hnjs-172" style="edgeStyle=orthogonalEdgeStyle;rounded=0;orthogonalLoop=1;jettySize=auto;html=1;exitX=0.25;exitY=1;exitDx=0;exitDy=0;entryX=0.5;entryY=0;entryDx=0;entryDy=0;dashed=1;fontFamily=Roboto;fontSource=https%3A%2F%2Ffonts.googleapis.com%2Fcss%3Ffamily%3DRoboto;fontSize=16;fontColor=#000000;strokeColor=#7EA6E0;strokeWidth=1;" parent="1" source="Mus7yZhnYwH2cR40hnjs-32" target="Mus7yZhnYwH2cR40hnjs-34" edge="1">
          <mxGeometry relative="1" as="geometry" />
        </mxCell>
        <mxCell id="Mus7yZhnYwH2cR40hnjs-173" style="edgeStyle=orthogonalEdgeStyle;rounded=0;orthogonalLoop=1;jettySize=auto;html=1;exitX=0.25;exitY=1;exitDx=0;exitDy=0;entryX=0.5;entryY=0;entryDx=0;entryDy=0;dashed=1;fontFamily=Roboto;fontSource=https%3A%2F%2Ffonts.googleapis.com%2Fcss%3Ffamily%3DRoboto;fontSize=16;fontColor=#000000;strokeColor=#7EA6E0;strokeWidth=1;" parent="1" source="Mus7yZhnYwH2cR40hnjs-33" target="Mus7yZhnYwH2cR40hnjs-169" edge="1">
          <mxGeometry relative="1" as="geometry" />
        </mxCell>
        <mxCell id="Mus7yZhnYwH2cR40hnjs-177" style="edgeStyle=orthogonalEdgeStyle;rounded=0;orthogonalLoop=1;jettySize=auto;html=1;exitX=0.75;exitY=1;exitDx=0;exitDy=0;entryX=0.5;entryY=0;entryDx=0;entryDy=0;dashed=1;fontFamily=Roboto;fontSource=https%3A%2F%2Ffonts.googleapis.com%2Fcss%3Ffamily%3DRoboto;fontSize=16;fontColor=#000000;strokeColor=#7EA6E0;strokeWidth=1;" parent="1" source="Mus7yZhnYwH2cR40hnjs-32" target="Mus7yZhnYwH2cR40hnjs-176" edge="1">
          <mxGeometry relative="1" as="geometry" />
        </mxCell>
        <mxCell id="Mus7yZhnYwH2cR40hnjs-32" value="Reduto dos Animais Feéricos" style="rounded=1;whiteSpace=wrap;html=1;fillColor=#dae8fc;strokeColor=#6c8ebf;strokeWidth=2;fontFamily=Roboto;fontSource=https%3A%2F%2Ffonts.googleapis.com%2Fcss%3Ffamily%3DRoboto;spacing=10;" parent="1" vertex="1">
          <mxGeometry x="-1000" y="200" width="120" height="40" as="geometry" />
        </mxCell>
        <mxCell id="Mus7yZhnYwH2cR40hnjs-179" style="edgeStyle=orthogonalEdgeStyle;rounded=0;orthogonalLoop=1;jettySize=auto;html=1;exitX=0.5;exitY=1;exitDx=0;exitDy=0;entryX=0.5;entryY=0;entryDx=0;entryDy=0;dashed=1;fontFamily=Roboto;fontSource=https%3A%2F%2Ffonts.googleapis.com%2Fcss%3Ffamily%3DRoboto;fontSize=16;fontColor=#000000;strokeColor=#7EA6E0;strokeWidth=1;startArrow=classic;startFill=1;" parent="1" source="Mus7yZhnYwH2cR40hnjs-33" target="Mus7yZhnYwH2cR40hnjs-45" edge="1">
          <mxGeometry relative="1" as="geometry" />
        </mxCell>
        <mxCell id="Mus7yZhnYwH2cR40hnjs-220" style="edgeStyle=orthogonalEdgeStyle;rounded=0;orthogonalLoop=1;jettySize=auto;html=1;exitX=0.75;exitY=1;exitDx=0;exitDy=0;entryX=0.5;entryY=0;entryDx=0;entryDy=0;dashed=1;fontFamily=Roboto;fontSource=https%3A%2F%2Ffonts.googleapis.com%2Fcss%3Ffamily%3DRoboto;fontSize=16;fontColor=#FFFFFF;strokeColor=#7EA6E0;strokeWidth=1;startArrow=classic;startFill=1;" parent="1" source="Mus7yZhnYwH2cR40hnjs-33" target="Mus7yZhnYwH2cR40hnjs-219" edge="1">
          <mxGeometry relative="1" as="geometry" />
        </mxCell>
        <mxCell id="Mus7yZhnYwH2cR40hnjs-33" value="Assentamento Phanaton" style="rounded=1;whiteSpace=wrap;html=1;fillColor=#dae8fc;strokeColor=#6c8ebf;strokeWidth=2;fontFamily=Roboto;fontSource=https%3A%2F%2Ffonts.googleapis.com%2Fcss%3Ffamily%3DRoboto;" parent="1" vertex="1">
          <mxGeometry x="-1360" y="200" width="120" height="40" as="geometry" />
        </mxCell>
        <mxCell id="Mus7yZhnYwH2cR40hnjs-178" style="edgeStyle=orthogonalEdgeStyle;rounded=0;orthogonalLoop=1;jettySize=auto;html=1;exitX=0.75;exitY=1;exitDx=0;exitDy=0;entryX=0.5;entryY=0;entryDx=0;entryDy=0;dashed=1;fontFamily=Roboto;fontSource=https%3A%2F%2Ffonts.googleapis.com%2Fcss%3Ffamily%3DRoboto;fontSize=16;fontColor=#000000;strokeColor=#7EA6E0;strokeWidth=1;" parent="1" source="Mus7yZhnYwH2cR40hnjs-34" target="Mus7yZhnYwH2cR40hnjs-44" edge="1">
          <mxGeometry relative="1" as="geometry" />
        </mxCell>
        <mxCell id="Mus7yZhnYwH2cR40hnjs-183" style="edgeStyle=orthogonalEdgeStyle;rounded=0;orthogonalLoop=1;jettySize=auto;html=1;exitX=0.25;exitY=1;exitDx=0;exitDy=0;entryX=0.5;entryY=0;entryDx=0;entryDy=0;dashed=1;fontFamily=Roboto;fontSource=https%3A%2F%2Ffonts.googleapis.com%2Fcss%3Ffamily%3DRoboto;fontSize=16;fontColor=#000000;strokeColor=#7EA6E0;strokeWidth=1;" parent="1" source="Mus7yZhnYwH2cR40hnjs-34" target="Mus7yZhnYwH2cR40hnjs-48" edge="1">
          <mxGeometry relative="1" as="geometry" />
        </mxCell>
        <mxCell id="Mus7yZhnYwH2cR40hnjs-34" value="Covil dos Reptilianos" style="rounded=1;whiteSpace=wrap;html=1;fillColor=#dae8fc;strokeColor=#6c8ebf;strokeWidth=2;fontFamily=Roboto;fontSource=https%3A%2F%2Ffonts.googleapis.com%2Fcss%3Ffamily%3DRoboto;spacing=10;" parent="1" vertex="1">
          <mxGeometry x="-1080" y="320" width="120" height="40" as="geometry" />
        </mxCell>
        <mxCell id="Mus7yZhnYwH2cR40hnjs-35" value="Caverna dos Babuínos" style="rounded=1;whiteSpace=wrap;html=1;fillColor=#dae8fc;strokeColor=#6c8ebf;strokeWidth=2;fontFamily=Roboto;fontSource=https%3A%2F%2Ffonts.googleapis.com%2Fcss%3Ffamily%3DRoboto;" parent="1" vertex="1">
          <mxGeometry x="-280" y="440" width="120" height="40" as="geometry" />
        </mxCell>
        <mxCell id="Mus7yZhnYwH2cR40hnjs-36" value="Nangalore" style="rounded=1;whiteSpace=wrap;html=1;fillColor=#dae8fc;strokeColor=#6c8ebf;strokeWidth=2;fontFamily=Roboto;fontSource=https%3A%2F%2Ffonts.googleapis.com%2Fcss%3Ffamily%3DRoboto;" parent="1" vertex="1">
          <mxGeometry x="320" y="320" width="120" height="40" as="geometry" />
        </mxCell>
        <mxCell id="Mus7yZhnYwH2cR40hnjs-237" style="edgeStyle=orthogonalEdgeStyle;rounded=0;orthogonalLoop=1;jettySize=auto;html=1;exitX=0.25;exitY=0;exitDx=0;exitDy=0;entryX=0.5;entryY=0;entryDx=0;entryDy=0;dashed=1;dashPattern=1 1;fontFamily=Roboto;fontSource=https%3A%2F%2Ffonts.googleapis.com%2Fcss%3Ffamily%3DRoboto;fontSize=16;fontColor=#FFFFFF;startArrow=none;startFill=0;endArrow=halfCircle;endFill=0;strokeColor=#CDA2BE;strokeWidth=3;" parent="1" source="Mus7yZhnYwH2cR40hnjs-37" target="Mus7yZhnYwH2cR40hnjs-31" edge="1">
          <mxGeometry relative="1" as="geometry">
            <Array as="points">
              <mxPoint x="510" y="400" />
              <mxPoint x="380" y="400" />
            </Array>
          </mxGeometry>
        </mxCell>
        <mxCell id="9_sNKZ55_7l1igq3uqOG-1" style="edgeStyle=orthogonalEdgeStyle;rounded=0;orthogonalLoop=1;jettySize=auto;html=1;exitX=0;exitY=0.5;exitDx=0;exitDy=0;entryX=0.5;entryY=0;entryDx=0;entryDy=0;dashed=1;dashPattern=1 2;fontColor=#FFFFFF;strokeColor=#FF0080;strokeWidth=3;fontFamily=Roboto;fontSource=https%3A%2F%2Ffonts.googleapis.com%2Fcss%3Ffamily%3DRoboto;" edge="1" parent="1" source="Mus7yZhnYwH2cR40hnjs-37" target="Mus7yZhnYwH2cR40hnjs-180">
          <mxGeometry relative="1" as="geometry" />
        </mxCell>
        <mxCell id="Mus7yZhnYwH2cR40hnjs-37" value="Coração de Bagwunagijik" style="rounded=1;whiteSpace=wrap;html=1;fillColor=#dae8fc;strokeColor=#6c8ebf;strokeWidth=2;fontFamily=Roboto;fontSource=https%3A%2F%2Ffonts.googleapis.com%2Fcss%3Ffamily%3DRoboto;" parent="1" vertex="1">
          <mxGeometry x="480" y="440" width="120" height="40" as="geometry" />
        </mxCell>
        <mxCell id="Mus7yZhnYwH2cR40hnjs-215" style="edgeStyle=orthogonalEdgeStyle;rounded=0;orthogonalLoop=1;jettySize=auto;html=1;exitX=1;exitY=0.5;exitDx=0;exitDy=0;entryX=0;entryY=0.5;entryDx=0;entryDy=0;dashed=1;fontFamily=Roboto;fontSource=https%3A%2F%2Ffonts.googleapis.com%2Fcss%3Ffamily%3DRoboto;fontSize=16;fontColor=#FFFFFF;strokeColor=#7EA6E0;strokeWidth=1;" parent="1" source="Mus7yZhnYwH2cR40hnjs-39" target="Mus7yZhnYwH2cR40hnjs-36" edge="1">
          <mxGeometry relative="1" as="geometry" />
        </mxCell>
        <mxCell id="Mus7yZhnYwH2cR40hnjs-217" style="edgeStyle=orthogonalEdgeStyle;rounded=0;orthogonalLoop=1;jettySize=auto;html=1;exitX=0.25;exitY=1;exitDx=0;exitDy=0;entryX=0.5;entryY=0;entryDx=0;entryDy=0;dashed=1;fontFamily=Roboto;fontSource=https%3A%2F%2Ffonts.googleapis.com%2Fcss%3Ffamily%3DRoboto;fontSize=16;fontColor=#FFFFFF;strokeColor=#7EA6E0;strokeWidth=1;" parent="1" source="Mus7yZhnYwH2cR40hnjs-39" target="Mus7yZhnYwH2cR40hnjs-216" edge="1">
          <mxGeometry relative="1" as="geometry" />
        </mxCell>
        <mxCell id="Mus7yZhnYwH2cR40hnjs-218" style="edgeStyle=orthogonalEdgeStyle;rounded=0;orthogonalLoop=1;jettySize=auto;html=1;exitX=0.75;exitY=1;exitDx=0;exitDy=0;entryX=0.5;entryY=0;entryDx=0;entryDy=0;dashed=1;fontFamily=Roboto;fontSource=https%3A%2F%2Ffonts.googleapis.com%2Fcss%3Ffamily%3DRoboto;fontSize=16;fontColor=#FFFFFF;strokeColor=#7EA6E0;strokeWidth=1;" parent="1" source="Mus7yZhnYwH2cR40hnjs-39" target="Mus7yZhnYwH2cR40hnjs-42" edge="1">
          <mxGeometry relative="1" as="geometry" />
        </mxCell>
        <mxCell id="Mus7yZhnYwH2cR40hnjs-39" value="Tir Sabal" style="rounded=1;whiteSpace=wrap;html=1;fillColor=#dae8fc;strokeColor=#6c8ebf;strokeWidth=2;fontFamily=Roboto;fontSource=https%3A%2F%2Ffonts.googleapis.com%2Fcss%3Ffamily%3DRoboto;" parent="1" vertex="1">
          <mxGeometry x="40" y="440" width="120" height="40" as="geometry" />
        </mxCell>
        <mxCell id="9_sNKZ55_7l1igq3uqOG-23" style="edgeStyle=orthogonalEdgeStyle;rounded=0;orthogonalLoop=1;jettySize=auto;html=1;exitX=0.133;exitY=0.981;exitDx=0;exitDy=0;dashed=1;fontColor=#FFFFFF;startArrow=none;endArrow=none;endFill=0;strokeWidth=1;fontFamily=Roboto;fontSource=https%3A%2F%2Ffonts.googleapis.com%2Fcss%3Ffamily%3DRoboto;fontSize=16;strokeColor=#7EA6E0;exitPerimeter=0;" edge="1" parent="1" source="Mus7yZhnYwH2cR40hnjs-41">
          <mxGeometry relative="1" as="geometry">
            <mxPoint x="550" y="760" as="targetPoint" />
            <Array as="points">
              <mxPoint x="657" y="760" />
            </Array>
          </mxGeometry>
        </mxCell>
        <mxCell id="Mus7yZhnYwH2cR40hnjs-41" value="Orolunga" style="rounded=1;whiteSpace=wrap;html=1;fillColor=#dae8fc;strokeColor=#6c8ebf;fontFamily=Roboto;fontSource=https%3A%2F%2Ffonts.googleapis.com%2Fcss%3Ffamily%3DRoboto;" parent="1" vertex="1">
          <mxGeometry x="641" y="519.75" width="120" height="40" as="geometry" />
        </mxCell>
        <mxCell id="Mus7yZhnYwH2cR40hnjs-42" value="Ehecatl" style="rounded=1;whiteSpace=wrap;html=1;fillColor=#dae8fc;strokeColor=#6c8ebf;strokeWidth=2;fontFamily=Roboto;fontSource=https%3A%2F%2Ffonts.googleapis.com%2Fcss%3Ffamily%3DRoboto;" parent="1" vertex="1">
          <mxGeometry x="120" y="559.75" width="120" height="40" as="geometry" />
        </mxCell>
        <mxCell id="Mus7yZhnYwH2cR40hnjs-184" style="edgeStyle=orthogonalEdgeStyle;rounded=0;orthogonalLoop=1;jettySize=auto;html=1;exitX=0.5;exitY=1;exitDx=0;exitDy=0;entryX=0.5;entryY=0;entryDx=0;entryDy=0;dashed=1;fontFamily=Roboto;fontSize=11;fontColor=#FFFFFF;strokeColor=#FF0080;strokeWidth=3;dashPattern=1 2;fontSource=https%3A%2F%2Ffonts.googleapis.com%2Fcss%3Ffamily%3DRoboto;" parent="1" source="Mus7yZhnYwH2cR40hnjs-43" target="Mus7yZhnYwH2cR40hnjs-41" edge="1">
          <mxGeometry relative="1" as="geometry" />
        </mxCell>
        <mxCell id="Mus7yZhnYwH2cR40hnjs-260" style="edgeStyle=orthogonalEdgeStyle;rounded=0;orthogonalLoop=1;jettySize=auto;html=1;exitX=0;exitY=0.5;exitDx=0;exitDy=0;entryX=1;entryY=0.5;entryDx=0;entryDy=0;fontFamily=Roboto;fontSource=https%3A%2F%2Ffonts.googleapis.com%2Fcss%3Ffamily%3DRoboto;fontSize=16;fontColor=#FFFFFF;startArrow=none;startFill=0;endArrow=halfCircle;endFill=0;strokeColor=#CDA2BE;strokeWidth=3;dashed=1;dashPattern=1 1;" parent="1" source="Mus7yZhnYwH2cR40hnjs-43" target="Mus7yZhnYwH2cR40hnjs-37" edge="1">
          <mxGeometry relative="1" as="geometry">
            <Array as="points">
              <mxPoint x="620" y="460" />
              <mxPoint x="620" y="460" />
            </Array>
          </mxGeometry>
        </mxCell>
        <mxCell id="Mus7yZhnYwH2cR40hnjs-43" value="Mbala" style="rounded=1;whiteSpace=wrap;html=1;fillColor=#dae8fc;strokeColor=#6c8ebf;strokeWidth=2;fontFamily=Roboto;fontSource=https%3A%2F%2Ffonts.googleapis.com%2Fcss%3Ffamily%3DRoboto;" parent="1" vertex="1">
          <mxGeometry x="641" y="440.25" width="120" height="40" as="geometry" />
        </mxCell>
        <mxCell id="Mus7yZhnYwH2cR40hnjs-224" style="edgeStyle=orthogonalEdgeStyle;rounded=0;orthogonalLoop=1;jettySize=auto;html=1;exitX=0;exitY=0.5;exitDx=0;exitDy=0;entryX=1;entryY=0.5;entryDx=0;entryDy=0;dashed=1;fontFamily=Roboto;fontSource=https%3A%2F%2Ffonts.googleapis.com%2Fcss%3Ffamily%3DRoboto;fontSize=16;fontColor=#FFFFFF;startArrow=none;startFill=0;strokeColor=#7EA6E0;strokeWidth=1;" parent="1" source="Mus7yZhnYwH2cR40hnjs-44" target="Mus7yZhnYwH2cR40hnjs-48" edge="1">
          <mxGeometry relative="1" as="geometry" />
        </mxCell>
        <mxCell id="Mus7yZhnYwH2cR40hnjs-225" style="edgeStyle=orthogonalEdgeStyle;rounded=0;orthogonalLoop=1;jettySize=auto;html=1;exitX=0.5;exitY=1;exitDx=0;exitDy=0;entryX=0.5;entryY=0;entryDx=0;entryDy=0;dashed=1;fontFamily=Roboto;fontSource=https%3A%2F%2Ffonts.googleapis.com%2Fcss%3Ffamily%3DRoboto;fontSize=16;fontColor=#FFFFFF;startArrow=none;startFill=0;strokeColor=#7EA6E0;strokeWidth=1;" parent="1" source="Mus7yZhnYwH2cR40hnjs-44" target="Mus7yZhnYwH2cR40hnjs-47" edge="1">
          <mxGeometry relative="1" as="geometry" />
        </mxCell>
        <mxCell id="9_sNKZ55_7l1igq3uqOG-2" style="edgeStyle=orthogonalEdgeStyle;rounded=0;orthogonalLoop=1;jettySize=auto;html=1;exitX=1;exitY=0.5;exitDx=0;exitDy=0;entryX=0;entryY=0.75;entryDx=0;entryDy=0;dashed=1;fontColor=#FFFFFF;strokeColor=#6C8EBF;dashPattern=1 4;strokeWidth=2;fontFamily=Roboto;fontSource=https%3A%2F%2Ffonts.googleapis.com%2Fcss%3Ffamily%3DRoboto;" edge="1" parent="1" source="Mus7yZhnYwH2cR40hnjs-44" target="Mus7yZhnYwH2cR40hnjs-31">
          <mxGeometry relative="1" as="geometry">
            <Array as="points">
              <mxPoint x="-820" y="460" />
              <mxPoint x="-820" y="660" />
              <mxPoint x="300" y="660" />
              <mxPoint x="300" y="470" />
            </Array>
          </mxGeometry>
        </mxCell>
        <mxCell id="Mus7yZhnYwH2cR40hnjs-44" value="Covil do Dragão" style="rounded=1;whiteSpace=wrap;html=1;fillColor=#dae8fc;strokeColor=#6c8ebf;strokeWidth=2;fontFamily=Roboto;fontSource=https%3A%2F%2Ffonts.googleapis.com%2Fcss%3Ffamily%3DRoboto;" parent="1" vertex="1">
          <mxGeometry x="-1000" y="440" width="120" height="40" as="geometry" />
        </mxCell>
        <mxCell id="Mus7yZhnYwH2cR40hnjs-254" style="edgeStyle=orthogonalEdgeStyle;rounded=0;orthogonalLoop=1;jettySize=auto;html=1;exitX=0;exitY=0.5;exitDx=0;exitDy=0;entryX=0;entryY=0.5;entryDx=0;entryDy=0;fontFamily=Roboto;fontSource=https%3A%2F%2Ffonts.googleapis.com%2Fcss%3Ffamily%3DRoboto;fontSize=16;fontColor=#000000;startArrow=none;endArrow=classic;strokeColor=#7EA6E0;strokeWidth=1;dashed=1;" parent="1" source="Mus7yZhnYwH2cR40hnjs-45" target="Mus7yZhnYwH2cR40hnjs-33" edge="1">
          <mxGeometry relative="1" as="geometry">
            <Array as="points">
              <mxPoint x="-1480" y="420" />
              <mxPoint x="-1480" y="220" />
            </Array>
          </mxGeometry>
        </mxCell>
        <mxCell id="Mus7yZhnYwH2cR40hnjs-45" value="Baía da Tartaruga" style="rounded=1;whiteSpace=wrap;html=1;fillColor=#dae8fc;strokeColor=#6c8ebf;strokeWidth=2;fontFamily=Roboto;fontSource=https%3A%2F%2Ffonts.googleapis.com%2Fcss%3Ffamily%3DRoboto;spacing=10;" parent="1" vertex="1">
          <mxGeometry x="-1360" y="400" width="120" height="40" as="geometry" />
        </mxCell>
        <mxCell id="Mus7yZhnYwH2cR40hnjs-46" value="Ossos do Agulha" style="rounded=1;whiteSpace=wrap;html=1;fillColor=#dae8fc;strokeColor=#6c8ebf;strokeWidth=2;fontFamily=Roboto;fontSource=https%3A%2F%2Ffonts.googleapis.com%2Fcss%3Ffamily%3DRoboto;" parent="1" vertex="1">
          <mxGeometry x="480" y="320" width="120" height="40" as="geometry" />
        </mxCell>
        <mxCell id="Mus7yZhnYwH2cR40hnjs-47" value="Covil dos Trogloditas" style="rounded=1;whiteSpace=wrap;html=1;fillColor=#dae8fc;strokeColor=#6c8ebf;strokeWidth=2;fontFamily=Roboto;fontSource=https%3A%2F%2Ffonts.googleapis.com%2Fcss%3Ffamily%3DRoboto;" parent="1" vertex="1">
          <mxGeometry x="-1000" y="560" width="120" height="40" as="geometry" />
        </mxCell>
        <mxCell id="Mus7yZhnYwH2cR40hnjs-48" value="Covil dos Ogros" style="rounded=1;whiteSpace=wrap;html=1;fillColor=#dae8fc;strokeColor=#6c8ebf;strokeWidth=2;fontFamily=Roboto;fontSource=https%3A%2F%2Ffonts.googleapis.com%2Fcss%3Ffamily%3DRoboto;" parent="1" vertex="1">
          <mxGeometry x="-1160" y="440" width="120" height="40" as="geometry" />
        </mxCell>
        <mxCell id="Mus7yZhnYwH2cR40hnjs-56" style="edgeStyle=orthogonalEdgeStyle;rounded=0;orthogonalLoop=1;jettySize=auto;html=1;exitX=0.25;exitY=1;exitDx=0;exitDy=0;entryX=0.5;entryY=0;entryDx=0;entryDy=0;fontFamily=Roboto;fontColor=#FFFFFF;strokeColor=#FF0080;strokeWidth=3;dashed=1;dashPattern=1 2;fontSource=https%3A%2F%2Ffonts.googleapis.com%2Fcss%3Ffamily%3DRoboto;" parent="1" source="Mus7yZhnYwH2cR40hnjs-52" target="Mus7yZhnYwH2cR40hnjs-30" edge="1">
          <mxGeometry relative="1" as="geometry" />
        </mxCell>
        <mxCell id="Mus7yZhnYwH2cR40hnjs-57" style="edgeStyle=orthogonalEdgeStyle;rounded=0;orthogonalLoop=1;jettySize=auto;html=1;exitX=0.5;exitY=1;exitDx=0;exitDy=0;fontFamily=Roboto;fontColor=#FFFFFF;strokeColor=#FF0080;dashed=1;dashPattern=1 2;strokeWidth=3;entryX=0.5;entryY=0;entryDx=0;entryDy=0;fontSource=https%3A%2F%2Ffonts.googleapis.com%2Fcss%3Ffamily%3DRoboto;" parent="1" source="Mus7yZhnYwH2cR40hnjs-52" target="Mus7yZhnYwH2cR40hnjs-35" edge="1">
          <mxGeometry relative="1" as="geometry">
            <mxPoint x="-200" y="430" as="targetPoint" />
          </mxGeometry>
        </mxCell>
        <mxCell id="Mus7yZhnYwH2cR40hnjs-58" style="edgeStyle=orthogonalEdgeStyle;rounded=0;orthogonalLoop=1;jettySize=auto;html=1;exitX=0.75;exitY=1;exitDx=0;exitDy=0;entryX=0.5;entryY=0;entryDx=0;entryDy=0;dashed=1;dashPattern=1 2;fontFamily=Roboto;fontColor=#FFFFFF;strokeColor=#FF0080;strokeWidth=3;fontSource=https%3A%2F%2Ffonts.googleapis.com%2Fcss%3Ffamily%3DRoboto;" parent="1" source="Mus7yZhnYwH2cR40hnjs-52" target="Mus7yZhnYwH2cR40hnjs-27" edge="1">
          <mxGeometry relative="1" as="geometry" />
        </mxCell>
        <mxCell id="Mus7yZhnYwH2cR40hnjs-52" value="Pico da Chama" style="rounded=1;whiteSpace=wrap;html=1;fillColor=#d80073;strokeColor=#A50040;fontColor=#ffffff;strokeWidth=3;fontFamily=Roboto;fontSource=https%3A%2F%2Ffonts.googleapis.com%2Fcss%3Ffamily%3DRoboto;" parent="1" vertex="1">
          <mxGeometry x="-280" y="320" width="120" height="40" as="geometry" />
        </mxCell>
        <mxCell id="Mus7yZhnYwH2cR40hnjs-59" value="Mormesk #1" style="rounded=1;whiteSpace=wrap;html=1;fillColor=#dae8fc;strokeColor=#6c8ebf;strokeWidth=2;fontFamily=Roboto;fontSource=https%3A%2F%2Ffonts.googleapis.com%2Fcss%3Ffamily%3DRoboto;" parent="1" vertex="1">
          <mxGeometry x="200" y="880" width="120" height="40" as="geometry" />
        </mxCell>
        <mxCell id="Mus7yZhnYwH2cR40hnjs-61" value="Mormesk #3" style="rounded=1;whiteSpace=wrap;html=1;fillColor=#dae8fc;strokeColor=#6c8ebf;strokeWidth=2;fontFamily=Roboto;fontSource=https%3A%2F%2Ffonts.googleapis.com%2Fcss%3Ffamily%3DRoboto;" parent="1" vertex="1">
          <mxGeometry x="360" y="880" width="120" height="40" as="geometry" />
        </mxCell>
        <mxCell id="Mus7yZhnYwH2cR40hnjs-62" value="Poço de Betume" style="rounded=1;whiteSpace=wrap;html=1;fillColor=#dae8fc;strokeColor=#6c8ebf;strokeWidth=2;fontFamily=Roboto;fontSource=https%3A%2F%2Ffonts.googleapis.com%2Fcss%3Ffamily%3DRoboto;" parent="1" vertex="1">
          <mxGeometry x="-520" y="320" width="120" height="40" as="geometry" />
        </mxCell>
        <mxCell id="Mus7yZhnYwH2cR40hnjs-22" value="Aranhas d&#39;Água" style="rounded=1;whiteSpace=wrap;html=1;fillColor=#E6D0DE;strokeColor=#CDA2BE;dashed=1;strokeWidth=2;fontFamily=Roboto;fontSource=https%3A%2F%2Ffonts.googleapis.com%2Fcss%3Ffamily%3DRoboto;" parent="1" vertex="1">
          <mxGeometry x="-760" y="440" width="120" height="20" as="geometry" />
        </mxCell>
        <mxCell id="Mus7yZhnYwH2cR40hnjs-73" value="&lt;font color=&quot;#ffffff&quot;&gt;Rastros de Yuan-ti&lt;/font&gt;" style="rounded=1;whiteSpace=wrap;html=1;shadow=0;glass=0;labelBackgroundColor=none;sketch=0;fontFamily=Roboto;fillColor=#f0a30a;spacingLeft=11;spacingRight=11;strokeColor=#BD7000;fontColor=#000000;strokeWidth=2;fontSource=https%3A%2F%2Ffonts.googleapis.com%2Fcss%3Ffamily%3DRoboto;" parent="1" vertex="1">
          <mxGeometry x="1655.5" y="524.75" width="139" height="50" as="geometry" />
        </mxCell>
        <mxCell id="Mus7yZhnYwH2cR40hnjs-77" value="1" style="ellipse;whiteSpace=wrap;html=1;aspect=fixed;shadow=0;glass=0;labelBackgroundColor=none;sketch=0;fillColor=#dae8fc;strokeColor=#6c8ebf;strokeWidth=2;fontFamily=Roboto;fontSource=https%3A%2F%2Ffonts.googleapis.com%2Fcss%3Ffamily%3DRoboto;fontSize=10;" parent="1" vertex="1">
          <mxGeometry x="980" y="199.5" width="20" height="20" as="geometry" />
        </mxCell>
        <mxCell id="Mus7yZhnYwH2cR40hnjs-78" value="1" style="ellipse;whiteSpace=wrap;html=1;aspect=fixed;shadow=0;glass=0;labelBackgroundColor=none;sketch=0;fillColor=#1F66B8;strokeColor=#007FFF;rounded=1;spacingLeft=11;spacingRight=11;fontColor=#FFFFFF;fontFamily=Roboto;fontSource=https%3A%2F%2Ffonts.googleapis.com%2Fcss%3Ffamily%3DRoboto;strokeWidth=2;fontSize=10;" parent="1" vertex="1">
          <mxGeometry x="-170" y="70" width="20" height="20" as="geometry" />
        </mxCell>
        <mxCell id="Mus7yZhnYwH2cR40hnjs-79" value="2" style="ellipse;whiteSpace=wrap;html=1;aspect=fixed;shadow=0;glass=0;labelBackgroundColor=none;sketch=0;fillColor=#dae8fc;strokeColor=#6c8ebf;strokeWidth=2;fontFamily=Roboto;fontSource=https%3A%2F%2Ffonts.googleapis.com%2Fcss%3Ffamily%3DRoboto;fontSize=10;" parent="1" vertex="1">
          <mxGeometry x="980" y="279.5" width="20" height="20" as="geometry" />
        </mxCell>
        <mxCell id="Mus7yZhnYwH2cR40hnjs-81" value="2" style="ellipse;whiteSpace=wrap;html=1;aspect=fixed;shadow=0;glass=0;labelBackgroundColor=none;sketch=0;fillColor=#1F66B8;strokeColor=#007FFF;rounded=1;spacingLeft=11;spacingRight=11;fontColor=#FFFFFF;fontFamily=Roboto;fontSource=https%3A%2F%2Ffonts.googleapis.com%2Fcss%3Ffamily%3DRoboto;strokeWidth=2;fontSize=10;" parent="1" vertex="1">
          <mxGeometry x="-650" y="490" width="20" height="20" as="geometry" />
        </mxCell>
        <mxCell id="Mus7yZhnYwH2cR40hnjs-82" value="&lt;font style=&quot;font-size: 16px&quot;&gt;Linha Élfica&lt;/font&gt;" style="text;strokeColor=none;fillColor=none;html=1;fontSize=24;fontStyle=1;verticalAlign=middle;align=center;shadow=0;glass=0;dashed=1;labelBackgroundColor=none;sketch=0;fontFamily=Roboto;fontSource=https%3A%2F%2Ffonts.googleapis.com%2Fcss%3Ffamily%3DRoboto;fontColor=#000000;" parent="1" vertex="1">
          <mxGeometry x="980" y="159.5" width="86" height="40" as="geometry" />
        </mxCell>
        <mxCell id="Mus7yZhnYwH2cR40hnjs-83" value="&lt;font style=&quot;font-size: 16px&quot;&gt;Linha Letíria&lt;/font&gt;" style="text;strokeColor=none;fillColor=none;html=1;fontSize=24;fontStyle=1;verticalAlign=middle;align=center;shadow=0;glass=0;dashed=1;labelBackgroundColor=none;sketch=0;fontFamily=Roboto;fontSource=https%3A%2F%2Ffonts.googleapis.com%2Fcss%3Ffamily%3DRoboto;fontColor=#000000;" parent="1" vertex="1">
          <mxGeometry x="1194.5" y="159.5" width="90" height="40" as="geometry" />
        </mxCell>
        <mxCell id="Mus7yZhnYwH2cR40hnjs-84" value="&lt;font style=&quot;font-size: 16px&quot;&gt;Cualli&lt;/font&gt;" style="text;strokeColor=none;fillColor=none;html=1;fontSize=24;fontStyle=1;verticalAlign=middle;align=center;shadow=0;glass=0;dashed=1;labelBackgroundColor=none;sketch=0;fontFamily=Roboto;fontSource=https%3A%2F%2Ffonts.googleapis.com%2Fcss%3Ffamily%3DRoboto;fontColor=#000000;" parent="1" vertex="1">
          <mxGeometry x="1420" y="169" width="40" height="21" as="geometry" />
        </mxCell>
        <mxCell id="Mus7yZhnYwH2cR40hnjs-85" value="&lt;font style=&quot;font-size: 16px&quot;&gt;Tieferinos&lt;/font&gt;" style="text;strokeColor=none;fillColor=none;html=1;fontSize=24;fontStyle=1;verticalAlign=middle;align=center;shadow=0;glass=0;dashed=1;labelBackgroundColor=none;sketch=0;fontFamily=Roboto;fontSource=https%3A%2F%2Ffonts.googleapis.com%2Fcss%3Ffamily%3DRoboto;fontColor=#000000;" parent="1" vertex="1">
          <mxGeometry x="1867.5" y="169.5" width="70" height="21" as="geometry" />
        </mxCell>
        <mxCell id="Mus7yZhnYwH2cR40hnjs-86" value="&lt;font style=&quot;font-size: 16px&quot;&gt;Mormesk&lt;/font&gt;" style="text;strokeColor=none;fillColor=none;html=1;fontSize=24;fontStyle=1;verticalAlign=middle;align=center;shadow=0;glass=0;dashed=1;labelBackgroundColor=none;sketch=0;fontFamily=Roboto;fontSource=https%3A%2F%2Ffonts.googleapis.com%2Fcss%3Ffamily%3DRoboto;fontColor=#000000;" parent="1" vertex="1">
          <mxGeometry x="2090" y="173" width="70" height="21" as="geometry" />
        </mxCell>
        <mxCell id="Mus7yZhnYwH2cR40hnjs-102" style="edgeStyle=orthogonalEdgeStyle;rounded=0;orthogonalLoop=1;jettySize=auto;html=1;exitX=0.5;exitY=1;exitDx=0;exitDy=0;entryX=0.5;entryY=0;entryDx=0;entryDy=0;fontFamily=Roboto;fontSource=https%3A%2F%2Ffonts.googleapis.com%2Fcss%3Ffamily%3DRoboto;fontSize=10;fontColor=#000000;strokeColor=#1F66B8;strokeWidth=1;" parent="1" source="Mus7yZhnYwH2cR40hnjs-87" target="Mus7yZhnYwH2cR40hnjs-88" edge="1">
          <mxGeometry relative="1" as="geometry" />
        </mxCell>
        <mxCell id="Mus7yZhnYwH2cR40hnjs-87" value="&lt;font color=&quot;#ffffff&quot;&gt;Os Elfos antigos já estiveram aqui&lt;/font&gt;" style="rounded=1;whiteSpace=wrap;html=1;shadow=0;glass=0;labelBackgroundColor=none;sketch=0;fontFamily=Roboto;fillColor=#1F66B8;spacingLeft=11;spacingRight=11;strokeColor=#007FFF;strokeWidth=2;fontSource=https%3A%2F%2Ffonts.googleapis.com%2Fcss%3Ffamily%3DRoboto;" parent="1" vertex="1">
          <mxGeometry x="984" y="494.5" width="139" height="75" as="geometry" />
        </mxCell>
        <mxCell id="Mus7yZhnYwH2cR40hnjs-103" style="edgeStyle=orthogonalEdgeStyle;rounded=0;orthogonalLoop=1;jettySize=auto;html=1;exitX=0.5;exitY=1;exitDx=0;exitDy=0;entryX=0.5;entryY=0;entryDx=0;entryDy=0;fontFamily=Roboto;fontSource=https%3A%2F%2Ffonts.googleapis.com%2Fcss%3Ffamily%3DRoboto;fontSize=10;fontColor=#000000;strokeColor=#1F66B8;strokeWidth=1;" parent="1" source="Mus7yZhnYwH2cR40hnjs-88" target="Mus7yZhnYwH2cR40hnjs-13" edge="1">
          <mxGeometry relative="1" as="geometry" />
        </mxCell>
        <mxCell id="Mus7yZhnYwH2cR40hnjs-88" value="&lt;font color=&quot;#ffffff&quot;&gt;Os elfos dominaram a Ilha&lt;/font&gt;" style="rounded=1;whiteSpace=wrap;html=1;shadow=0;glass=0;labelBackgroundColor=none;sketch=0;fontFamily=Roboto;fillColor=#1F66B8;spacingLeft=11;spacingRight=11;strokeColor=#007FFF;strokeWidth=2;fontSource=https%3A%2F%2Ffonts.googleapis.com%2Fcss%3Ffamily%3DRoboto;" parent="1" vertex="1">
          <mxGeometry x="984" y="609.5" width="139" height="50" as="geometry" />
        </mxCell>
        <mxCell id="Mus7yZhnYwH2cR40hnjs-105" style="edgeStyle=orthogonalEdgeStyle;rounded=0;orthogonalLoop=1;jettySize=auto;html=1;exitX=0.5;exitY=1;exitDx=0;exitDy=0;entryX=0.5;entryY=0;entryDx=0;entryDy=0;fontFamily=Roboto;fontSource=https%3A%2F%2Ffonts.googleapis.com%2Fcss%3Ffamily%3DRoboto;fontSize=10;fontColor=#000000;strokeColor=#1F66B8;strokeWidth=1;" parent="1" source="Mus7yZhnYwH2cR40hnjs-89" target="Mus7yZhnYwH2cR40hnjs-90" edge="1">
          <mxGeometry relative="1" as="geometry" />
        </mxCell>
        <mxCell id="Mus7yZhnYwH2cR40hnjs-89" value="&lt;font color=&quot;#ffffff&quot;&gt;Os elfos guardaram a Sildarine de Shar na ilha&lt;/font&gt;" style="rounded=1;whiteSpace=wrap;html=1;shadow=0;glass=0;labelBackgroundColor=none;sketch=0;fontFamily=Roboto;fillColor=#1F66B8;spacingLeft=11;spacingRight=11;strokeColor=#007FFF;strokeWidth=2;fontSource=https%3A%2F%2Ffonts.googleapis.com%2Fcss%3Ffamily%3DRoboto;" parent="1" vertex="1">
          <mxGeometry x="984" y="779.5" width="139" height="60" as="geometry" />
        </mxCell>
        <mxCell id="Mus7yZhnYwH2cR40hnjs-90" value="&lt;font color=&quot;#ffffff&quot;&gt;Os elfos criaram os &quot;guardiões&quot;&lt;/font&gt;" style="rounded=1;whiteSpace=wrap;html=1;shadow=0;glass=0;labelBackgroundColor=none;sketch=0;fontFamily=Roboto;fillColor=#1F66B8;spacingLeft=11;spacingRight=11;strokeColor=#007FFF;strokeWidth=2;fontSource=https%3A%2F%2Ffonts.googleapis.com%2Fcss%3Ffamily%3DRoboto;" parent="1" vertex="1">
          <mxGeometry x="984" y="879.5" width="139" height="60" as="geometry" />
        </mxCell>
        <mxCell id="Mus7yZhnYwH2cR40hnjs-91" value="&lt;font style=&quot;font-size: 16px&quot;&gt;Expedição de Ranala&lt;/font&gt;" style="text;strokeColor=none;fillColor=none;html=1;fontSize=24;fontStyle=1;verticalAlign=middle;align=center;shadow=0;glass=0;dashed=1;labelBackgroundColor=none;sketch=0;fontFamily=Roboto;fontSource=https%3A%2F%2Ffonts.googleapis.com%2Fcss%3Ffamily%3DRoboto;fontColor=#000000;" parent="1" vertex="1">
          <mxGeometry x="2260" y="173" width="150" height="21" as="geometry" />
        </mxCell>
        <mxCell id="Mus7yZhnYwH2cR40hnjs-92" value="3" style="ellipse;whiteSpace=wrap;html=1;aspect=fixed;shadow=0;glass=0;labelBackgroundColor=none;sketch=0;fillColor=#dae8fc;strokeColor=#6c8ebf;strokeWidth=2;fontFamily=Roboto;fontSource=https%3A%2F%2Ffonts.googleapis.com%2Fcss%3Ffamily%3DRoboto;fontSize=10;" parent="1" vertex="1">
          <mxGeometry x="980" y="371.5" width="20" height="20" as="geometry" />
        </mxCell>
        <mxCell id="Mus7yZhnYwH2cR40hnjs-93" value="4" style="ellipse;whiteSpace=wrap;html=1;aspect=fixed;shadow=0;glass=0;labelBackgroundColor=none;sketch=0;fillColor=#dae8fc;strokeColor=#6c8ebf;strokeWidth=2;fontFamily=Roboto;fontSource=https%3A%2F%2Ffonts.googleapis.com%2Fcss%3Ffamily%3DRoboto;fontSize=10;" parent="1" vertex="1">
          <mxGeometry x="980" y="487.5" width="20" height="20" as="geometry" />
        </mxCell>
        <mxCell id="Mus7yZhnYwH2cR40hnjs-94" value="5" style="ellipse;whiteSpace=wrap;html=1;aspect=fixed;shadow=0;glass=0;labelBackgroundColor=none;sketch=0;fillColor=#dae8fc;strokeColor=#6c8ebf;strokeWidth=2;fontFamily=Roboto;fontSource=https%3A%2F%2Ffonts.googleapis.com%2Fcss%3Ffamily%3DRoboto;fontSize=10;" parent="1" vertex="1">
          <mxGeometry x="980" y="602.5" width="20" height="20" as="geometry" />
        </mxCell>
        <mxCell id="Mus7yZhnYwH2cR40hnjs-95" value="6" style="ellipse;whiteSpace=wrap;html=1;aspect=fixed;shadow=0;glass=0;labelBackgroundColor=none;sketch=0;fillColor=#dae8fc;strokeColor=#6c8ebf;strokeWidth=2;fontFamily=Roboto;fontSource=https%3A%2F%2Ffonts.googleapis.com%2Fcss%3Ffamily%3DRoboto;fontSize=10;" parent="1" vertex="1">
          <mxGeometry x="980" y="688.5" width="20" height="20" as="geometry" />
        </mxCell>
        <mxCell id="Mus7yZhnYwH2cR40hnjs-96" value="7" style="ellipse;whiteSpace=wrap;html=1;aspect=fixed;shadow=0;glass=0;labelBackgroundColor=none;sketch=0;fillColor=#dae8fc;strokeColor=#6c8ebf;strokeWidth=2;fontFamily=Roboto;fontSource=https%3A%2F%2Ffonts.googleapis.com%2Fcss%3Ffamily%3DRoboto;fontSize=10;" parent="1" vertex="1">
          <mxGeometry x="980" y="771.5" width="20" height="20" as="geometry" />
        </mxCell>
        <mxCell id="Mus7yZhnYwH2cR40hnjs-97" value="8" style="ellipse;whiteSpace=wrap;html=1;aspect=fixed;shadow=0;glass=0;labelBackgroundColor=none;sketch=0;fillColor=#dae8fc;strokeColor=#6c8ebf;strokeWidth=2;fontFamily=Roboto;fontSource=https%3A%2F%2Ffonts.googleapis.com%2Fcss%3Ffamily%3DRoboto;fontSize=10;" parent="1" vertex="1">
          <mxGeometry x="980" y="873.5" width="20" height="20" as="geometry" />
        </mxCell>
        <mxCell id="Mus7yZhnYwH2cR40hnjs-109" value="&lt;font style=&quot;font-size: 16px&quot;&gt;Ras Nsi&lt;/font&gt;" style="text;strokeColor=none;fillColor=none;html=1;fontSize=24;fontStyle=1;verticalAlign=middle;align=center;shadow=0;glass=0;dashed=1;labelBackgroundColor=none;sketch=0;fontFamily=Roboto;fontSource=https%3A%2F%2Ffonts.googleapis.com%2Fcss%3Ffamily%3DRoboto;fontColor=#000000;" parent="1" vertex="1">
          <mxGeometry x="1655.5" y="169" width="60" height="21" as="geometry" />
        </mxCell>
        <mxCell id="Mus7yZhnYwH2cR40hnjs-110" value="1" style="ellipse;whiteSpace=wrap;html=1;aspect=fixed;shadow=0;glass=0;labelBackgroundColor=none;sketch=0;fillColor=#d5e8d4;strokeColor=#82b366;strokeWidth=2;fontFamily=Roboto;fontSource=https%3A%2F%2Ffonts.googleapis.com%2Fcss%3Ffamily%3DRoboto;fontSize=10;" parent="1" vertex="1">
          <mxGeometry x="1420" y="199.5" width="20" height="20" as="geometry" />
        </mxCell>
        <mxCell id="Mus7yZhnYwH2cR40hnjs-111" value="2" style="ellipse;whiteSpace=wrap;html=1;aspect=fixed;shadow=0;glass=0;labelBackgroundColor=none;sketch=0;fillColor=#d5e8d4;strokeColor=#82b366;strokeWidth=2;fontFamily=Roboto;fontSource=https%3A%2F%2Ffonts.googleapis.com%2Fcss%3Ffamily%3DRoboto;fontSize=10;" parent="1" vertex="1">
          <mxGeometry x="1420" y="279.5" width="20" height="20" as="geometry" />
        </mxCell>
        <mxCell id="Mus7yZhnYwH2cR40hnjs-112" value="3" style="ellipse;whiteSpace=wrap;html=1;aspect=fixed;shadow=0;glass=0;labelBackgroundColor=none;sketch=0;fillColor=#d5e8d4;strokeColor=#82b366;strokeWidth=2;fontFamily=Roboto;fontSource=https%3A%2F%2Ffonts.googleapis.com%2Fcss%3Ffamily%3DRoboto;fontSize=10;" parent="1" vertex="1">
          <mxGeometry x="1420" y="371.5" width="20" height="20" as="geometry" />
        </mxCell>
        <mxCell id="Mus7yZhnYwH2cR40hnjs-113" value="4" style="ellipse;whiteSpace=wrap;html=1;aspect=fixed;shadow=0;glass=0;labelBackgroundColor=none;sketch=0;fillColor=#d5e8d4;strokeColor=#82b366;strokeWidth=2;fontFamily=Roboto;fontSource=https%3A%2F%2Ffonts.googleapis.com%2Fcss%3Ffamily%3DRoboto;fontSize=10;" parent="1" vertex="1">
          <mxGeometry x="1420" y="453.5" width="20" height="20" as="geometry" />
        </mxCell>
        <mxCell id="Mus7yZhnYwH2cR40hnjs-114" value="5" style="ellipse;whiteSpace=wrap;html=1;aspect=fixed;shadow=0;glass=0;labelBackgroundColor=none;sketch=0;fillColor=#d5e8d4;strokeColor=#82b366;strokeWidth=2;fontFamily=Roboto;fontSource=https%3A%2F%2Ffonts.googleapis.com%2Fcss%3Ffamily%3DRoboto;fontSize=10;" parent="1" vertex="1">
          <mxGeometry x="1420" y="535" width="20" height="20" as="geometry" />
        </mxCell>
        <mxCell id="Mus7yZhnYwH2cR40hnjs-115" value="6" style="ellipse;whiteSpace=wrap;html=1;aspect=fixed;shadow=0;glass=0;labelBackgroundColor=none;sketch=0;fillColor=#d5e8d4;strokeColor=#82b366;strokeWidth=2;fontFamily=Roboto;fontSource=https%3A%2F%2Ffonts.googleapis.com%2Fcss%3Ffamily%3DRoboto;fontSize=10;" parent="1" vertex="1">
          <mxGeometry x="1420" y="620.5" width="20" height="20" as="geometry" />
        </mxCell>
        <mxCell id="Mus7yZhnYwH2cR40hnjs-116" value="8" style="ellipse;whiteSpace=wrap;html=1;aspect=fixed;shadow=0;glass=0;labelBackgroundColor=none;sketch=0;fillColor=#d5e8d4;strokeColor=#82b366;strokeWidth=2;fontFamily=Roboto;fontSource=https%3A%2F%2Ffonts.googleapis.com%2Fcss%3Ffamily%3DRoboto;fontSize=10;" parent="1" vertex="1">
          <mxGeometry x="1420" y="829.5" width="20" height="20" as="geometry" />
        </mxCell>
        <mxCell id="Mus7yZhnYwH2cR40hnjs-120" value="7" style="ellipse;whiteSpace=wrap;html=1;aspect=fixed;shadow=0;glass=0;labelBackgroundColor=none;sketch=0;fillColor=#d5e8d4;strokeColor=#82b366;strokeWidth=2;fontFamily=Roboto;fontSource=https%3A%2F%2Ffonts.googleapis.com%2Fcss%3Ffamily%3DRoboto;fontSize=10;" parent="1" vertex="1">
          <mxGeometry x="1420" y="740.5" width="20" height="20" as="geometry" />
        </mxCell>
        <mxCell id="Mus7yZhnYwH2cR40hnjs-121" value="&lt;font color=&quot;#ffffff&quot;&gt;Omu se torna a &quot;cidade proibida&quot;&lt;/font&gt;" style="rounded=1;whiteSpace=wrap;html=1;shadow=0;glass=0;labelBackgroundColor=none;sketch=0;fontFamily=Roboto;fillColor=#008a00;spacingLeft=11;spacingRight=11;strokeColor=#005700;fontColor=#ffffff;strokeWidth=2;fontSource=https%3A%2F%2Ffonts.googleapis.com%2Fcss%3Ffamily%3DRoboto;" parent="1" vertex="1">
          <mxGeometry x="1427" y="929.5" width="139" height="50" as="geometry" />
        </mxCell>
        <mxCell id="Mus7yZhnYwH2cR40hnjs-117" value="9" style="ellipse;whiteSpace=wrap;html=1;aspect=fixed;shadow=0;glass=0;labelBackgroundColor=none;sketch=0;fillColor=#d5e8d4;strokeColor=#82b366;strokeWidth=2;fontFamily=Roboto;fontSource=https%3A%2F%2Ffonts.googleapis.com%2Fcss%3Ffamily%3DRoboto;fontSize=10;" parent="1" vertex="1">
          <mxGeometry x="1420" y="919.5" width="20" height="20" as="geometry" />
        </mxCell>
        <mxCell id="Mus7yZhnYwH2cR40hnjs-130" value="1" style="ellipse;whiteSpace=wrap;html=1;aspect=fixed;shadow=0;glass=0;labelBackgroundColor=none;sketch=0;fillColor=#008a00;strokeColor=#005700;rounded=1;spacingLeft=11;spacingRight=11;fontColor=#ffffff;fontFamily=Roboto;fontSource=https%3A%2F%2Ffonts.googleapis.com%2Fcss%3Ffamily%3DRoboto;strokeWidth=2;fontSize=10;" parent="1" vertex="1">
          <mxGeometry x="90" y="470" width="20" height="20" as="geometry" />
        </mxCell>
        <mxCell id="Mus7yZhnYwH2cR40hnjs-133" value="6" style="ellipse;whiteSpace=wrap;html=1;aspect=fixed;shadow=0;glass=0;labelBackgroundColor=none;sketch=0;fillColor=#008a00;strokeColor=#005700;rounded=1;spacingLeft=11;spacingRight=11;fontColor=#ffffff;fontFamily=Roboto;fontSource=https%3A%2F%2Ffonts.googleapis.com%2Fcss%3Ffamily%3DRoboto;strokeWidth=2;fontSize=10;" parent="1" vertex="1">
          <mxGeometry x="111" y="470" width="20" height="20" as="geometry" />
        </mxCell>
        <mxCell id="Mus7yZhnYwH2cR40hnjs-134" value="7" style="ellipse;whiteSpace=wrap;html=1;aspect=fixed;shadow=0;glass=0;labelBackgroundColor=none;sketch=0;fillColor=#008a00;strokeColor=#005700;rounded=1;spacingLeft=11;spacingRight=11;fontColor=#ffffff;fontFamily=Roboto;fontSource=https%3A%2F%2Ffonts.googleapis.com%2Fcss%3Ffamily%3DRoboto;strokeWidth=2;fontSize=10;" parent="1" vertex="1">
          <mxGeometry x="132" y="470" width="20" height="20" as="geometry" />
        </mxCell>
        <mxCell id="Mus7yZhnYwH2cR40hnjs-135" value="9" style="ellipse;whiteSpace=wrap;html=1;aspect=fixed;shadow=0;glass=0;labelBackgroundColor=none;sketch=0;fillColor=#008a00;strokeColor=#005700;rounded=1;spacingLeft=11;spacingRight=11;fontColor=#ffffff;fontFamily=Roboto;fontSource=https%3A%2F%2Ffonts.googleapis.com%2Fcss%3Ffamily%3DRoboto;strokeWidth=2;fontSize=10;" parent="1" vertex="1">
          <mxGeometry x="152" y="470" width="20" height="20" as="geometry" />
        </mxCell>
        <mxCell id="Mus7yZhnYwH2cR40hnjs-137" value="&lt;font color=&quot;#ffffff&quot;&gt;Os tieferinos surgiram do vulcão&lt;/font&gt;" style="rounded=1;whiteSpace=wrap;html=1;shadow=0;glass=0;labelBackgroundColor=none;sketch=0;fontFamily=Roboto;fillColor=#e51400;spacingLeft=11;spacingRight=11;strokeColor=#B20000;fontColor=#ffffff;strokeWidth=2;fontSource=https%3A%2F%2Ffonts.googleapis.com%2Fcss%3Ffamily%3DRoboto;" parent="1" vertex="1">
          <mxGeometry x="1875.5" y="288" width="139" height="52" as="geometry" />
        </mxCell>
        <mxCell id="Mus7yZhnYwH2cR40hnjs-138" value="&lt;font color=&quot;#ffffff&quot;&gt;Os tieferinos são filhos de Toatiti&lt;/font&gt;" style="rounded=1;whiteSpace=wrap;html=1;shadow=0;glass=0;labelBackgroundColor=none;sketch=0;fontFamily=Roboto;fillColor=#e51400;spacingLeft=11;spacingRight=11;strokeColor=#B20000;fontColor=#ffffff;strokeWidth=2;fontSource=https%3A%2F%2Ffonts.googleapis.com%2Fcss%3Ffamily%3DRoboto;" parent="1" vertex="1">
          <mxGeometry x="1875.5" y="210" width="139" height="50" as="geometry" />
        </mxCell>
        <mxCell id="Mus7yZhnYwH2cR40hnjs-139" value="1" style="ellipse;whiteSpace=wrap;html=1;aspect=fixed;shadow=0;glass=0;labelBackgroundColor=none;sketch=0;fillColor=#f8cecc;strokeColor=#b85450;strokeWidth=2;fontFamily=Roboto;fontSource=https%3A%2F%2Ffonts.googleapis.com%2Fcss%3Ffamily%3DRoboto;fontSize=10;" parent="1" vertex="1">
          <mxGeometry x="1867.5" y="200" width="20" height="20" as="geometry" />
        </mxCell>
        <mxCell id="Mus7yZhnYwH2cR40hnjs-140" value="2" style="ellipse;whiteSpace=wrap;html=1;aspect=fixed;shadow=0;glass=0;labelBackgroundColor=none;sketch=0;fillColor=#f8cecc;strokeColor=#b85450;strokeWidth=2;fontFamily=Roboto;fontSource=https%3A%2F%2Ffonts.googleapis.com%2Fcss%3Ffamily%3DRoboto;fontSize=10;" parent="1" vertex="1">
          <mxGeometry x="1867.5" y="280" width="20" height="20" as="geometry" />
        </mxCell>
        <mxCell id="Mus7yZhnYwH2cR40hnjs-141" value="&lt;font color=&quot;#ffffff&quot;&gt;Os tieferinos lutaram contra os letírios&lt;/font&gt;" style="rounded=1;whiteSpace=wrap;html=1;shadow=0;glass=0;labelBackgroundColor=none;sketch=0;fontFamily=Roboto;fillColor=#e51400;spacingLeft=11;spacingRight=11;strokeColor=#B20000;fontColor=#ffffff;strokeWidth=2;fontSource=https%3A%2F%2Ffonts.googleapis.com%2Fcss%3Ffamily%3DRoboto;" parent="1" vertex="1">
          <mxGeometry x="1875.5" y="373" width="139" height="52" as="geometry" />
        </mxCell>
        <mxCell id="Mus7yZhnYwH2cR40hnjs-142" value="3" style="ellipse;whiteSpace=wrap;html=1;aspect=fixed;shadow=0;glass=0;labelBackgroundColor=none;sketch=0;fillColor=#f8cecc;strokeColor=#b85450;strokeWidth=2;fontFamily=Roboto;fontSource=https%3A%2F%2Ffonts.googleapis.com%2Fcss%3Ffamily%3DRoboto;fontSize=10;" parent="1" vertex="1">
          <mxGeometry x="1867.5" y="365" width="20" height="20" as="geometry" />
        </mxCell>
        <mxCell id="Mus7yZhnYwH2cR40hnjs-144" value="2" style="ellipse;whiteSpace=wrap;html=1;aspect=fixed;shadow=0;glass=0;labelBackgroundColor=none;sketch=0;fillColor=#e51400;strokeColor=#B20000;rounded=1;spacingLeft=11;spacingRight=11;fontColor=#ffffff;fontFamily=Roboto;fontSource=https%3A%2F%2Ffonts.googleapis.com%2Fcss%3Ffamily%3DRoboto;strokeWidth=2;fontSize=10;" parent="1" vertex="1">
          <mxGeometry x="-170" y="470" width="20" height="20" as="geometry" />
        </mxCell>
        <mxCell id="Mus7yZhnYwH2cR40hnjs-145" value="1" style="ellipse;whiteSpace=wrap;html=1;aspect=fixed;shadow=0;glass=0;labelBackgroundColor=none;sketch=0;fillColor=#e51400;strokeColor=#B20000;rounded=1;spacingLeft=11;spacingRight=11;fontColor=#ffffff;fontFamily=Roboto;fontSource=https%3A%2F%2Ffonts.googleapis.com%2Fcss%3Ffamily%3DRoboto;strokeWidth=2;fontSize=10;" parent="1" vertex="1">
          <mxGeometry x="-570" y="228" width="20" height="20" as="geometry" />
        </mxCell>
        <mxCell id="Mus7yZhnYwH2cR40hnjs-146" value="1" style="ellipse;whiteSpace=wrap;html=1;aspect=fixed;shadow=0;glass=0;labelBackgroundColor=none;sketch=0;fillColor=#ffe6cc;strokeColor=#d79b00;strokeWidth=2;fontFamily=Roboto;fontSource=https%3A%2F%2Ffonts.googleapis.com%2Fcss%3Ffamily%3DRoboto;fontSize=10;" parent="1" vertex="1">
          <mxGeometry x="1648.5" y="199.5" width="20" height="20" as="geometry" />
        </mxCell>
        <mxCell id="Mus7yZhnYwH2cR40hnjs-148" value="3" style="ellipse;whiteSpace=wrap;html=1;aspect=fixed;shadow=0;glass=0;labelBackgroundColor=none;sketch=0;fillColor=#ffe6cc;strokeColor=#d79b00;strokeWidth=2;fontFamily=Roboto;fontSource=https%3A%2F%2Ffonts.googleapis.com%2Fcss%3Ffamily%3DRoboto;fontSize=10;" parent="1" vertex="1">
          <mxGeometry x="1648.5" y="410.5" width="20" height="20" as="geometry" />
        </mxCell>
        <mxCell id="Mus7yZhnYwH2cR40hnjs-247" style="edgeStyle=orthogonalEdgeStyle;rounded=0;orthogonalLoop=1;jettySize=auto;html=1;exitX=0.5;exitY=1;exitDx=0;exitDy=0;entryX=0.5;entryY=0;entryDx=0;entryDy=0;fontFamily=Roboto;fontSize=11;fontColor=#FFFFFF;startArrow=none;endArrow=classic;strokeColor=#990000;fontSource=https%3A%2F%2Ffonts.googleapis.com%2Fcss%3Ffamily%3DRoboto;" parent="1" source="Mus7yZhnYwH2cR40hnjs-150" target="Mus7yZhnYwH2cR40hnjs-152" edge="1">
          <mxGeometry relative="1" as="geometry" />
        </mxCell>
        <mxCell id="Mus7yZhnYwH2cR40hnjs-150" value="&lt;font color=&quot;#ffffff&quot;&gt;O Império Letírio já veio até a ilha&lt;/font&gt;" style="rounded=1;whiteSpace=wrap;html=1;shadow=0;glass=0;labelBackgroundColor=none;sketch=0;fontFamily=Roboto;fillColor=#a20025;spacingLeft=0;spacingRight=0;strokeColor=#6F0000;spacing=11;fontColor=#ffffff;strokeWidth=2;fontSource=https%3A%2F%2Ffonts.googleapis.com%2Fcss%3Ffamily%3DRoboto;" parent="1" vertex="1">
          <mxGeometry x="1200.5" y="207.5" width="139" height="50" as="geometry" />
        </mxCell>
        <mxCell id="Mus7yZhnYwH2cR40hnjs-151" value="1" style="ellipse;whiteSpace=wrap;html=1;aspect=fixed;shadow=0;glass=0;labelBackgroundColor=none;sketch=0;fillColor=#E3C8BC;strokeColor=#A15745;strokeWidth=2;fontFamily=Roboto;fontSource=https%3A%2F%2Ffonts.googleapis.com%2Fcss%3Ffamily%3DRoboto;fontSize=10;" parent="1" vertex="1">
          <mxGeometry x="1194.5" y="200.5" width="20" height="20" as="geometry" />
        </mxCell>
        <mxCell id="Mus7yZhnYwH2cR40hnjs-248" style="edgeStyle=orthogonalEdgeStyle;rounded=0;sketch=0;orthogonalLoop=1;jettySize=auto;html=1;exitX=0.5;exitY=1;exitDx=0;exitDy=0;entryX=0.5;entryY=0;entryDx=0;entryDy=0;shadow=0;fontFamily=Roboto;fontSource=https%3A%2F%2Ffonts.googleapis.com%2Fcss%3Ffamily%3DRoboto;fontSize=16;fontColor=#FFFFFF;startArrow=none;startFill=0;endArrow=classic;endFill=1;strokeColor=#990000;strokeWidth=1;" parent="1" source="Mus7yZhnYwH2cR40hnjs-152" target="Mus7yZhnYwH2cR40hnjs-154" edge="1">
          <mxGeometry relative="1" as="geometry" />
        </mxCell>
        <mxCell id="Mus7yZhnYwH2cR40hnjs-152" value="&lt;font color=&quot;#ffffff&quot;&gt;Os letírios tomaram a Sildarine de Shar&lt;/font&gt;" style="rounded=1;whiteSpace=wrap;html=1;shadow=0;glass=0;labelBackgroundColor=none;sketch=0;fontFamily=Roboto;fillColor=#a20025;spacingLeft=0;spacingRight=0;strokeColor=#6F0000;spacing=11;fontColor=#ffffff;strokeWidth=2;fontSource=https%3A%2F%2Ffonts.googleapis.com%2Fcss%3Ffamily%3DRoboto;" parent="1" vertex="1">
          <mxGeometry x="1200.5" y="287.5" width="139" height="50" as="geometry" />
        </mxCell>
        <mxCell id="Mus7yZhnYwH2cR40hnjs-153" value="2" style="ellipse;whiteSpace=wrap;html=1;aspect=fixed;shadow=0;glass=0;labelBackgroundColor=none;sketch=0;fillColor=#E3C8BC;strokeColor=#A15745;strokeWidth=2;fontFamily=Roboto;fontSource=https%3A%2F%2Ffonts.googleapis.com%2Fcss%3Ffamily%3DRoboto;fontSize=10;" parent="1" vertex="1">
          <mxGeometry x="1194.5" y="279.5" width="20" height="20" as="geometry" />
        </mxCell>
        <mxCell id="Mus7yZhnYwH2cR40hnjs-249" style="edgeStyle=orthogonalEdgeStyle;rounded=0;sketch=0;orthogonalLoop=1;jettySize=auto;html=1;exitX=0.5;exitY=1;exitDx=0;exitDy=0;entryX=0.5;entryY=0;entryDx=0;entryDy=0;shadow=0;fontFamily=Roboto;fontSource=https%3A%2F%2Ffonts.googleapis.com%2Fcss%3Ffamily%3DRoboto;fontSize=16;fontColor=#FFFFFF;startArrow=none;startFill=0;endArrow=classic;endFill=1;strokeColor=#990000;strokeWidth=1;" parent="1" source="Mus7yZhnYwH2cR40hnjs-154" target="Mus7yZhnYwH2cR40hnjs-155" edge="1">
          <mxGeometry relative="1" as="geometry" />
        </mxCell>
        <mxCell id="Mus7yZhnYwH2cR40hnjs-154" value="&lt;font color=&quot;#ffffff&quot;&gt;Shar ensinou magia aos letírios&lt;/font&gt;" style="rounded=1;whiteSpace=wrap;html=1;shadow=0;glass=0;labelBackgroundColor=none;sketch=0;fontFamily=Roboto;fillColor=#a20025;spacingLeft=0;spacingRight=0;strokeColor=#6F0000;spacing=11;fontColor=#ffffff;strokeWidth=2;fontSource=https%3A%2F%2Ffonts.googleapis.com%2Fcss%3Ffamily%3DRoboto;" parent="1" vertex="1">
          <mxGeometry x="1200.5" y="369.5" width="139" height="50" as="geometry" />
        </mxCell>
        <mxCell id="Mus7yZhnYwH2cR40hnjs-250" style="edgeStyle=orthogonalEdgeStyle;rounded=0;sketch=0;orthogonalLoop=1;jettySize=auto;html=1;exitX=0.5;exitY=1;exitDx=0;exitDy=0;entryX=0.5;entryY=0;entryDx=0;entryDy=0;shadow=0;fontFamily=Roboto;fontSource=https%3A%2F%2Ffonts.googleapis.com%2Fcss%3Ffamily%3DRoboto;fontSize=16;fontColor=#FFFFFF;startArrow=none;startFill=0;endArrow=classic;endFill=1;strokeColor=#990000;strokeWidth=1;" parent="1" source="Mus7yZhnYwH2cR40hnjs-155" target="Mus7yZhnYwH2cR40hnjs-156" edge="1">
          <mxGeometry relative="1" as="geometry" />
        </mxCell>
        <mxCell id="Mus7yZhnYwH2cR40hnjs-155" value="&lt;font color=&quot;#ffffff&quot;&gt;O Império Letírio dominou a ilha&lt;/font&gt;" style="rounded=1;whiteSpace=wrap;html=1;shadow=0;glass=0;labelBackgroundColor=none;sketch=0;fontFamily=Roboto;fillColor=#a20025;spacingLeft=0;spacingRight=0;strokeColor=#6F0000;spacing=11;fontColor=#ffffff;strokeWidth=2;fontSource=https%3A%2F%2Ffonts.googleapis.com%2Fcss%3Ffamily%3DRoboto;" parent="1" vertex="1">
          <mxGeometry x="1200.5" y="449.5" width="139" height="50" as="geometry" />
        </mxCell>
        <mxCell id="Mus7yZhnYwH2cR40hnjs-251" style="edgeStyle=orthogonalEdgeStyle;rounded=0;sketch=0;orthogonalLoop=1;jettySize=auto;html=1;exitX=0.5;exitY=1;exitDx=0;exitDy=0;entryX=0.5;entryY=0;entryDx=0;entryDy=0;shadow=0;fontFamily=Roboto;fontSource=https%3A%2F%2Ffonts.googleapis.com%2Fcss%3Ffamily%3DRoboto;fontSize=16;fontColor=#FFFFFF;startArrow=none;startFill=0;endArrow=classic;endFill=1;strokeColor=#990000;strokeWidth=1;" parent="1" source="Mus7yZhnYwH2cR40hnjs-156" target="Mus7yZhnYwH2cR40hnjs-157" edge="1">
          <mxGeometry relative="1" as="geometry" />
        </mxCell>
        <mxCell id="Mus7yZhnYwH2cR40hnjs-156" value="&lt;font color=&quot;#ffffff&quot;&gt;Mezro despareceu&lt;/font&gt;" style="rounded=1;whiteSpace=wrap;html=1;shadow=0;glass=0;labelBackgroundColor=none;sketch=0;fontFamily=Roboto;fillColor=#a20025;spacingLeft=0;spacingRight=0;strokeColor=#6F0000;spacing=11;fontColor=#ffffff;strokeWidth=2;fontSource=https%3A%2F%2Ffonts.googleapis.com%2Fcss%3Ffamily%3DRoboto;" parent="1" vertex="1">
          <mxGeometry x="1200.5" y="529.5" width="139" height="50" as="geometry" />
        </mxCell>
        <mxCell id="Mus7yZhnYwH2cR40hnjs-253" style="edgeStyle=orthogonalEdgeStyle;rounded=0;sketch=0;orthogonalLoop=1;jettySize=auto;html=1;exitX=0.5;exitY=1;exitDx=0;exitDy=0;entryX=0.5;entryY=0;entryDx=0;entryDy=0;shadow=0;fontFamily=Roboto;fontSource=https%3A%2F%2Ffonts.googleapis.com%2Fcss%3Ffamily%3DRoboto;fontSize=16;fontColor=#FFFFFF;startArrow=none;startFill=0;endArrow=classic;endFill=1;strokeColor=#990000;strokeWidth=1;" parent="1" source="Mus7yZhnYwH2cR40hnjs-157" target="Mus7yZhnYwH2cR40hnjs-158" edge="1">
          <mxGeometry relative="1" as="geometry" />
        </mxCell>
        <mxCell id="Mus7yZhnYwH2cR40hnjs-157" value="&lt;font color=&quot;#ffffff&quot;&gt;Os letírios aprenderam a dominar a mente de dragões&lt;/font&gt;" style="rounded=1;whiteSpace=wrap;html=1;shadow=0;glass=0;labelBackgroundColor=none;sketch=0;fontFamily=Roboto;fillColor=#a20025;spacingLeft=0;spacingRight=0;strokeColor=#6F0000;spacing=11;fontColor=#ffffff;strokeWidth=2;fontSource=https%3A%2F%2Ffonts.googleapis.com%2Fcss%3Ffamily%3DRoboto;" parent="1" vertex="1">
          <mxGeometry x="1200.5" y="609.5" width="139" height="80" as="geometry" />
        </mxCell>
        <mxCell id="Mus7yZhnYwH2cR40hnjs-158" value="&lt;font color=&quot;#ffffff&quot;&gt;Um grupo de letírios se sentiu traído pelos magistrados e buscaram o poder de Toatiti para se transformar em tieferinos&lt;/font&gt;" style="rounded=1;whiteSpace=wrap;html=1;shadow=0;glass=0;labelBackgroundColor=none;sketch=0;fontFamily=Roboto;fillColor=#a20025;spacingLeft=0;spacingRight=0;strokeColor=#6F0000;spacing=11;fontColor=#ffffff;strokeWidth=2;fontSource=https%3A%2F%2Ffonts.googleapis.com%2Fcss%3Ffamily%3DRoboto;" parent="1" vertex="1">
          <mxGeometry x="1200.5" y="719.5" width="139" height="120" as="geometry" />
        </mxCell>
        <mxCell id="Mus7yZhnYwH2cR40hnjs-159" value="&lt;font color=&quot;#ffffff&quot;&gt;Massacre de Mezro&lt;/font&gt;" style="rounded=1;whiteSpace=wrap;html=1;shadow=0;glass=0;labelBackgroundColor=none;sketch=0;fontFamily=Roboto;fillColor=#f0a30a;spacingLeft=11;spacingRight=11;strokeColor=#BD7000;fontColor=#000000;strokeWidth=2;fontSource=https%3A%2F%2Ffonts.googleapis.com%2Fcss%3Ffamily%3DRoboto;" parent="1" vertex="1">
          <mxGeometry x="1655.5" y="329.5" width="139" height="50" as="geometry" />
        </mxCell>
        <mxCell id="Mus7yZhnYwH2cR40hnjs-147" value="2" style="ellipse;whiteSpace=wrap;html=1;aspect=fixed;shadow=0;glass=0;labelBackgroundColor=none;sketch=0;fillColor=#ffe6cc;strokeColor=#d79b00;strokeWidth=2;fontFamily=Roboto;fontSource=https%3A%2F%2Ffonts.googleapis.com%2Fcss%3Ffamily%3DRoboto;fontSize=10;" parent="1" vertex="1">
          <mxGeometry x="1648.5" y="320.5" width="20" height="20" as="geometry" />
        </mxCell>
        <mxCell id="Mus7yZhnYwH2cR40hnjs-161" value="4" style="ellipse;whiteSpace=wrap;html=1;aspect=fixed;shadow=0;glass=0;labelBackgroundColor=none;sketch=0;fillColor=#ffe6cc;strokeColor=#d79b00;strokeWidth=2;fontFamily=Roboto;fontSource=https%3A%2F%2Ffonts.googleapis.com%2Fcss%3Ffamily%3DRoboto;fontSize=10;" parent="1" vertex="1">
          <mxGeometry x="1648.5" y="515.25" width="20" height="20" as="geometry" />
        </mxCell>
        <mxCell id="Mus7yZhnYwH2cR40hnjs-163" value="3" style="ellipse;whiteSpace=wrap;html=1;aspect=fixed;shadow=0;glass=0;labelBackgroundColor=none;sketch=0;fillColor=#E3C8BC;strokeColor=#A15745;strokeWidth=2;fontFamily=Roboto;fontSource=https%3A%2F%2Ffonts.googleapis.com%2Fcss%3Ffamily%3DRoboto;fontSize=10;" parent="1" vertex="1">
          <mxGeometry x="1194.5" y="361.5" width="20" height="20" as="geometry" />
        </mxCell>
        <mxCell id="Mus7yZhnYwH2cR40hnjs-164" value="4" style="ellipse;whiteSpace=wrap;html=1;aspect=fixed;shadow=0;glass=0;labelBackgroundColor=none;sketch=0;fillColor=#E3C8BC;strokeColor=#A15745;strokeWidth=2;fontFamily=Roboto;fontSource=https%3A%2F%2Ffonts.googleapis.com%2Fcss%3Ffamily%3DRoboto;fontSize=10;" parent="1" vertex="1">
          <mxGeometry x="1194.5" y="440.5" width="20" height="20" as="geometry" />
        </mxCell>
        <mxCell id="Mus7yZhnYwH2cR40hnjs-165" value="5" style="ellipse;whiteSpace=wrap;html=1;aspect=fixed;shadow=0;glass=0;labelBackgroundColor=none;sketch=0;fillColor=#E3C8BC;strokeColor=#A15745;strokeWidth=2;fontFamily=Roboto;fontSource=https%3A%2F%2Ffonts.googleapis.com%2Fcss%3Ffamily%3DRoboto;fontSize=10;" parent="1" vertex="1">
          <mxGeometry x="1194.5" y="521" width="20" height="20" as="geometry" />
        </mxCell>
        <mxCell id="Mus7yZhnYwH2cR40hnjs-166" value="6" style="ellipse;whiteSpace=wrap;html=1;aspect=fixed;shadow=0;glass=0;labelBackgroundColor=none;sketch=0;fillColor=#E3C8BC;strokeColor=#A15745;strokeWidth=2;fontFamily=Roboto;fontSource=https%3A%2F%2Ffonts.googleapis.com%2Fcss%3Ffamily%3DRoboto;fontSize=10;" parent="1" vertex="1">
          <mxGeometry x="1194.5" y="602.5" width="20" height="20" as="geometry" />
        </mxCell>
        <mxCell id="Mus7yZhnYwH2cR40hnjs-167" value="7" style="ellipse;whiteSpace=wrap;html=1;aspect=fixed;shadow=0;glass=0;labelBackgroundColor=none;sketch=0;fillColor=#E3C8BC;strokeColor=#A15745;strokeWidth=2;fontFamily=Roboto;fontSource=https%3A%2F%2Ffonts.googleapis.com%2Fcss%3Ffamily%3DRoboto;fontSize=10;" parent="1" vertex="1">
          <mxGeometry x="1194.5" y="711.5" width="20" height="20" as="geometry" />
        </mxCell>
        <mxCell id="Mus7yZhnYwH2cR40hnjs-169" value="Covil das Araneas" style="rounded=1;whiteSpace=wrap;html=1;fillColor=#dae8fc;strokeColor=#6c8ebf;strokeWidth=2;fontFamily=Roboto;fontSource=https%3A%2F%2Ffonts.googleapis.com%2Fcss%3Ffamily%3DRoboto;" parent="1" vertex="1">
          <mxGeometry x="-1440" y="320" width="120" height="40" as="geometry" />
        </mxCell>
        <mxCell id="Mus7yZhnYwH2cR40hnjs-174" value="Podem dar rumores e odeiam as araneas" style="text;html=1;strokeColor=none;fillColor=none;align=center;verticalAlign=middle;whiteSpace=wrap;rounded=0;shadow=0;glass=0;dashed=1;labelBackgroundColor=none;sketch=0;fontFamily=Roboto;fontSource=https%3A%2F%2Ffonts.googleapis.com%2Fcss%3Ffamily%3DRoboto;fontSize=16;fontColor=#000000;" parent="1" vertex="1">
          <mxGeometry x="-1385" y="150" width="170" height="48" as="geometry" />
        </mxCell>
        <mxCell id="Mus7yZhnYwH2cR40hnjs-176" value="Área de caça das feras deslocadoras" style="rounded=1;whiteSpace=wrap;html=1;fillColor=#dae8fc;strokeColor=#6c8ebf;strokeWidth=2;fontFamily=Roboto;fontSource=https%3A%2F%2Ffonts.googleapis.com%2Fcss%3Ffamily%3DRoboto;spacing=10;" parent="1" vertex="1">
          <mxGeometry x="-920" y="320" width="120" height="40" as="geometry" />
        </mxCell>
        <mxCell id="9_sNKZ55_7l1igq3uqOG-17" style="edgeStyle=orthogonalEdgeStyle;rounded=0;orthogonalLoop=1;jettySize=auto;html=1;exitX=0.5;exitY=1;exitDx=0;exitDy=0;fontColor=#FFFFFF;startArrow=none;endArrow=classic;strokeWidth=1;dashed=1;fontFamily=Roboto;fontSource=https%3A%2F%2Ffonts.googleapis.com%2Fcss%3Ffamily%3DRoboto;fontSize=16;strokeColor=#7EA6E0;" edge="1" parent="1" source="Mus7yZhnYwH2cR40hnjs-180" target="9_sNKZ55_7l1igq3uqOG-16">
          <mxGeometry relative="1" as="geometry" />
        </mxCell>
        <mxCell id="Mus7yZhnYwH2cR40hnjs-180" value="Dungrunglung" style="rounded=1;whiteSpace=wrap;html=1;fillColor=#dae8fc;strokeColor=#6c8ebf;strokeWidth=2;fontFamily=Roboto;fontSource=https%3A%2F%2Ffonts.googleapis.com%2Fcss%3Ffamily%3DRoboto;" parent="1" vertex="1">
          <mxGeometry x="400" y="519.75" width="120" height="40" as="geometry" />
        </mxCell>
        <mxCell id="Mus7yZhnYwH2cR40hnjs-181" value="Mormesk #2" style="rounded=1;whiteSpace=wrap;html=1;fillColor=#dae8fc;strokeColor=#6c8ebf;strokeWidth=2;fontFamily=Roboto;fontSource=https%3A%2F%2Ffonts.googleapis.com%2Fcss%3Ffamily%3DRoboto;" parent="1" vertex="1">
          <mxGeometry x="400" y="680" width="120" height="40" as="geometry" />
        </mxCell>
        <mxCell id="Mus7yZhnYwH2cR40hnjs-258" style="edgeStyle=orthogonalEdgeStyle;rounded=0;orthogonalLoop=1;jettySize=auto;html=1;exitX=0.5;exitY=1;exitDx=0;exitDy=0;entryX=1;entryY=0.5;entryDx=0;entryDy=0;fontFamily=Roboto;fontSource=https%3A%2F%2Ffonts.googleapis.com%2Fcss%3Ffamily%3DRoboto;fontSize=16;fontColor=#FFFFFF;startArrow=none;endArrow=classic;strokeColor=#7EA6E0;strokeWidth=2;endFill=1;" parent="1" source="Mus7yZhnYwH2cR40hnjs-182" target="Mus7yZhnYwH2cR40hnjs-211" edge="1">
          <mxGeometry relative="1" as="geometry">
            <Array as="points">
              <mxPoint x="-60" y="859" />
            </Array>
          </mxGeometry>
        </mxCell>
        <mxCell id="Mus7yZhnYwH2cR40hnjs-182" value="Ponte para o Planalto Central" style="rounded=1;whiteSpace=wrap;html=1;fillColor=#dae8fc;strokeColor=#6c8ebf;spacingLeft=5;spacingRight=5;strokeWidth=2;fontFamily=Roboto;fontSource=https%3A%2F%2Ffonts.googleapis.com%2Fcss%3Ffamily%3DRoboto;" parent="1" vertex="1">
          <mxGeometry x="-120" y="800" width="120" height="40" as="geometry" />
        </mxCell>
        <mxCell id="Mus7yZhnYwH2cR40hnjs-185" value="" style="rounded=0;whiteSpace=wrap;html=1;shadow=0;glass=0;dashed=1;labelBackgroundColor=none;sketch=0;fontFamily=Roboto;fontSource=https%3A%2F%2Ffonts.googleapis.com%2Fcss%3Ffamily%3DRoboto;fontSize=10;fontColor=#000000;strokeColor=#1F66B8;strokeWidth=2;fillColor=none;" parent="1" vertex="1">
          <mxGeometry x="521" y="800" width="400" height="200" as="geometry" />
        </mxCell>
        <mxCell id="Mus7yZhnYwH2cR40hnjs-186" value="Infos dos Random" style="text;html=1;strokeColor=none;fillColor=none;align=center;verticalAlign=middle;whiteSpace=wrap;rounded=0;shadow=0;glass=0;dashed=1;labelBackgroundColor=none;sketch=0;fontFamily=Roboto;fontSource=https%3A%2F%2Ffonts.googleapis.com%2Fcss%3Ffamily%3DRoboto;fontSize=16;fontColor=#000000;" parent="1" vertex="1">
          <mxGeometry x="521" y="800" width="140" height="20" as="geometry" />
        </mxCell>
        <mxCell id="Mus7yZhnYwH2cR40hnjs-188" value="4" style="ellipse;whiteSpace=wrap;html=1;aspect=fixed;shadow=0;glass=0;labelBackgroundColor=none;sketch=0;fillColor=#dae8fc;strokeColor=#6c8ebf;strokeWidth=2;fontFamily=Roboto;fontSource=https%3A%2F%2Ffonts.googleapis.com%2Fcss%3Ffamily%3DRoboto;fontSize=10;" parent="1" vertex="1">
          <mxGeometry x="651" y="865" width="20" height="20" as="geometry" />
        </mxCell>
        <mxCell id="Mus7yZhnYwH2cR40hnjs-189" value="5" style="ellipse;whiteSpace=wrap;html=1;aspect=fixed;shadow=0;glass=0;labelBackgroundColor=none;sketch=0;fillColor=#dae8fc;strokeColor=#6c8ebf;strokeWidth=2;fontFamily=Roboto;fontSource=https%3A%2F%2Ffonts.googleapis.com%2Fcss%3Ffamily%3DRoboto;fontSize=10;" parent="1" vertex="1">
          <mxGeometry x="761" y="820" width="20" height="20" as="geometry" />
        </mxCell>
        <mxCell id="Mus7yZhnYwH2cR40hnjs-190" value="6" style="ellipse;whiteSpace=wrap;html=1;aspect=fixed;shadow=0;glass=0;labelBackgroundColor=none;sketch=0;fillColor=#dae8fc;strokeColor=#6c8ebf;strokeWidth=2;fontFamily=Roboto;fontSource=https%3A%2F%2Ffonts.googleapis.com%2Fcss%3Ffamily%3DRoboto;fontSize=10;" parent="1" vertex="1">
          <mxGeometry x="621" y="833" width="20" height="20" as="geometry" />
        </mxCell>
        <mxCell id="Mus7yZhnYwH2cR40hnjs-191" value="7" style="ellipse;whiteSpace=wrap;html=1;aspect=fixed;shadow=0;glass=0;labelBackgroundColor=none;sketch=0;fillColor=#dae8fc;strokeColor=#6c8ebf;strokeWidth=2;fontFamily=Roboto;fontSource=https%3A%2F%2Ffonts.googleapis.com%2Fcss%3Ffamily%3DRoboto;fontSize=10;" parent="1" vertex="1">
          <mxGeometry x="661" y="833" width="20" height="20" as="geometry" />
        </mxCell>
        <mxCell id="Mus7yZhnYwH2cR40hnjs-192" value="8" style="ellipse;whiteSpace=wrap;html=1;aspect=fixed;shadow=0;glass=0;labelBackgroundColor=none;sketch=0;fillColor=#dae8fc;strokeColor=#6c8ebf;strokeWidth=2;fontFamily=Roboto;fontSource=https%3A%2F%2Ffonts.googleapis.com%2Fcss%3Ffamily%3DRoboto;fontSize=10;" parent="1" vertex="1">
          <mxGeometry x="711" y="833" width="20" height="20" as="geometry" />
        </mxCell>
        <mxCell id="Mus7yZhnYwH2cR40hnjs-193" value="1" style="ellipse;whiteSpace=wrap;html=1;aspect=fixed;shadow=0;glass=0;labelBackgroundColor=none;sketch=0;fillColor=#E3C8BC;strokeColor=#A15745;strokeWidth=2;fontFamily=Roboto;fontSource=https%3A%2F%2Ffonts.googleapis.com%2Fcss%3Ffamily%3DRoboto;fontSize=10;" parent="1" vertex="1">
          <mxGeometry x="691" y="919" width="20" height="20" as="geometry" />
        </mxCell>
        <mxCell id="Mus7yZhnYwH2cR40hnjs-194" value="2" style="ellipse;whiteSpace=wrap;html=1;aspect=fixed;shadow=0;glass=0;labelBackgroundColor=none;sketch=0;fillColor=#E3C8BC;strokeColor=#A15745;strokeWidth=2;fontFamily=Roboto;fontSource=https%3A%2F%2Ffonts.googleapis.com%2Fcss%3Ffamily%3DRoboto;fontSize=10;" parent="1" vertex="1">
          <mxGeometry x="771" y="840" width="20" height="20" as="geometry" />
        </mxCell>
        <mxCell id="Mus7yZhnYwH2cR40hnjs-195" value="3" style="ellipse;whiteSpace=wrap;html=1;aspect=fixed;shadow=0;glass=0;labelBackgroundColor=none;sketch=0;fillColor=#E3C8BC;strokeColor=#A15745;strokeWidth=2;fontFamily=Roboto;fontSource=https%3A%2F%2Ffonts.googleapis.com%2Fcss%3Ffamily%3DRoboto;fontSize=10;" parent="1" vertex="1">
          <mxGeometry x="621" y="890" width="20" height="20" as="geometry" />
        </mxCell>
        <mxCell id="Mus7yZhnYwH2cR40hnjs-196" value="4" style="ellipse;whiteSpace=wrap;html=1;aspect=fixed;shadow=0;glass=0;labelBackgroundColor=none;sketch=0;fillColor=#E3C8BC;strokeColor=#A15745;strokeWidth=2;fontFamily=Roboto;fontSource=https%3A%2F%2Ffonts.googleapis.com%2Fcss%3Ffamily%3DRoboto;fontSize=10;" parent="1" vertex="1">
          <mxGeometry x="661" y="890" width="20" height="20" as="geometry" />
        </mxCell>
        <mxCell id="Mus7yZhnYwH2cR40hnjs-197" value="5" style="ellipse;whiteSpace=wrap;html=1;aspect=fixed;shadow=0;glass=0;labelBackgroundColor=none;sketch=0;fillColor=#E3C8BC;strokeColor=#A15745;strokeWidth=2;fontFamily=Roboto;fontSource=https%3A%2F%2Ffonts.googleapis.com%2Fcss%3Ffamily%3DRoboto;fontSize=10;" parent="1" vertex="1">
          <mxGeometry x="701" y="890" width="20" height="20" as="geometry" />
        </mxCell>
        <mxCell id="Mus7yZhnYwH2cR40hnjs-198" value="6" style="ellipse;whiteSpace=wrap;html=1;aspect=fixed;shadow=0;glass=0;labelBackgroundColor=none;sketch=0;fillColor=#E3C8BC;strokeColor=#A15745;strokeWidth=2;fontFamily=Roboto;fontSource=https%3A%2F%2Ffonts.googleapis.com%2Fcss%3Ffamily%3DRoboto;fontSize=10;" parent="1" vertex="1">
          <mxGeometry x="741" y="880" width="20" height="20" as="geometry" />
        </mxCell>
        <mxCell id="Mus7yZhnYwH2cR40hnjs-199" value="7" style="ellipse;whiteSpace=wrap;html=1;aspect=fixed;shadow=0;glass=0;labelBackgroundColor=none;sketch=0;fillColor=#E3C8BC;strokeColor=#A15745;strokeWidth=2;fontFamily=Roboto;fontSource=https%3A%2F%2Ffonts.googleapis.com%2Fcss%3Ffamily%3DRoboto;fontSize=10;" parent="1" vertex="1">
          <mxGeometry x="781" y="890" width="20" height="20" as="geometry" />
        </mxCell>
        <mxCell id="Mus7yZhnYwH2cR40hnjs-201" value="2" style="ellipse;whiteSpace=wrap;html=1;aspect=fixed;shadow=0;glass=0;labelBackgroundColor=none;sketch=0;fillColor=#d5e8d4;strokeColor=#82b366;strokeWidth=2;fontFamily=Roboto;fontSource=https%3A%2F%2Ffonts.googleapis.com%2Fcss%3Ffamily%3DRoboto;fontSize=10;" parent="1" vertex="1">
          <mxGeometry x="861" y="833" width="20" height="20" as="geometry" />
        </mxCell>
        <mxCell id="Mus7yZhnYwH2cR40hnjs-202" value="3" style="ellipse;whiteSpace=wrap;html=1;aspect=fixed;shadow=0;glass=0;labelBackgroundColor=none;sketch=0;fillColor=#d5e8d4;strokeColor=#82b366;strokeWidth=2;fontFamily=Roboto;fontSource=https%3A%2F%2Ffonts.googleapis.com%2Fcss%3Ffamily%3DRoboto;fontSize=10;" parent="1" vertex="1">
          <mxGeometry x="861" y="871" width="20" height="20" as="geometry" />
        </mxCell>
        <mxCell id="Mus7yZhnYwH2cR40hnjs-203" value="4" style="ellipse;whiteSpace=wrap;html=1;aspect=fixed;shadow=0;glass=0;labelBackgroundColor=none;sketch=0;fillColor=#d5e8d4;strokeColor=#82b366;strokeWidth=2;fontFamily=Roboto;fontSource=https%3A%2F%2Ffonts.googleapis.com%2Fcss%3Ffamily%3DRoboto;fontSize=10;" parent="1" vertex="1">
          <mxGeometry x="851" y="925" width="20" height="20" as="geometry" />
        </mxCell>
        <mxCell id="Mus7yZhnYwH2cR40hnjs-204" value="5" style="ellipse;whiteSpace=wrap;html=1;aspect=fixed;shadow=0;glass=0;labelBackgroundColor=none;sketch=0;fillColor=#d5e8d4;strokeColor=#82b366;strokeWidth=2;fontFamily=Roboto;fontSource=https%3A%2F%2Ffonts.googleapis.com%2Fcss%3Ffamily%3DRoboto;fontSize=10;" parent="1" vertex="1">
          <mxGeometry x="811" y="945" width="20" height="20" as="geometry" />
        </mxCell>
        <mxCell id="Mus7yZhnYwH2cR40hnjs-205" value="8" style="ellipse;whiteSpace=wrap;html=1;aspect=fixed;shadow=0;glass=0;labelBackgroundColor=none;sketch=0;fillColor=#008a00;strokeColor=#005700;strokeWidth=2;fontFamily=Roboto;fontSource=https%3A%2F%2Ffonts.googleapis.com%2Fcss%3Ffamily%3DRoboto;fontSize=10;fontColor=#ffffff;" parent="1" vertex="1">
          <mxGeometry x="731" y="549.25" width="20" height="20" as="geometry" />
        </mxCell>
        <mxCell id="Mus7yZhnYwH2cR40hnjs-206" value="1" style="ellipse;whiteSpace=wrap;html=1;aspect=fixed;shadow=0;glass=0;labelBackgroundColor=none;sketch=0;fillColor=#ffe6cc;strokeColor=#d79b00;strokeWidth=2;fontFamily=Roboto;fontSource=https%3A%2F%2Ffonts.googleapis.com%2Fcss%3Ffamily%3DRoboto;fontSize=10;" parent="1" vertex="1">
          <mxGeometry x="621" y="951" width="20" height="20" as="geometry" />
        </mxCell>
        <mxCell id="Mus7yZhnYwH2cR40hnjs-207" value="2" style="ellipse;whiteSpace=wrap;html=1;aspect=fixed;shadow=0;glass=0;labelBackgroundColor=none;sketch=0;fillColor=#f0a30a;strokeColor=#BD7000;strokeWidth=2;fontFamily=Roboto;fontSource=https%3A%2F%2Ffonts.googleapis.com%2Fcss%3Ffamily%3DRoboto;fontSize=10;fontColor=#FFFFFF;" parent="1" vertex="1">
          <mxGeometry x="671" y="549.75" width="20" height="20" as="geometry" />
        </mxCell>
        <mxCell id="Mus7yZhnYwH2cR40hnjs-208" value="3" style="ellipse;whiteSpace=wrap;html=1;aspect=fixed;shadow=0;glass=0;labelBackgroundColor=none;sketch=0;fillColor=#f0a30a;strokeColor=#BD7000;strokeWidth=2;fontFamily=Roboto;fontSource=https%3A%2F%2Ffonts.googleapis.com%2Fcss%3Ffamily%3DRoboto;fontSize=10;fontColor=#FFFFFF;" parent="1" vertex="1">
          <mxGeometry x="691" y="549.75" width="20" height="20" as="geometry" />
        </mxCell>
        <mxCell id="Mus7yZhnYwH2cR40hnjs-209" value="4" style="ellipse;whiteSpace=wrap;html=1;aspect=fixed;shadow=0;glass=0;labelBackgroundColor=none;sketch=0;fillColor=#f0a30a;strokeColor=#BD7000;strokeWidth=2;fontFamily=Roboto;fontSource=https%3A%2F%2Ffonts.googleapis.com%2Fcss%3Ffamily%3DRoboto;fontSize=10;fontColor=#FFFFFF;" parent="1" vertex="1">
          <mxGeometry x="350" y="228" width="20" height="20" as="geometry" />
        </mxCell>
        <mxCell id="Mus7yZhnYwH2cR40hnjs-210" value="3" style="ellipse;whiteSpace=wrap;html=1;aspect=fixed;shadow=0;glass=0;labelBackgroundColor=none;sketch=0;fillColor=#f8cecc;strokeColor=#b85450;strokeWidth=2;fontFamily=Roboto;fontSource=https%3A%2F%2Ffonts.googleapis.com%2Fcss%3Ffamily%3DRoboto;fontSize=10;" parent="1" vertex="1">
          <mxGeometry x="801" y="919" width="20" height="20" as="geometry" />
        </mxCell>
        <mxCell id="Mus7yZhnYwH2cR40hnjs-211" value="Omu" style="rounded=1;whiteSpace=wrap;html=1;fillColor=#dae8fc;strokeColor=#6c8ebf;strokeWidth=2;fontFamily=Roboto;fontSource=https%3A%2F%2Ffonts.googleapis.com%2Fcss%3Ffamily%3DRoboto;" parent="1" vertex="1">
          <mxGeometry x="-280" y="839" width="120" height="40" as="geometry" />
        </mxCell>
        <mxCell id="Mus7yZhnYwH2cR40hnjs-212" value="4" style="ellipse;whiteSpace=wrap;html=1;aspect=fixed;shadow=0;glass=0;labelBackgroundColor=none;sketch=0;fillColor=#1F66B8;strokeColor=#007FFF;strokeWidth=2;fontFamily=Roboto;fontSource=https%3A%2F%2Ffonts.googleapis.com%2Fcss%3Ffamily%3DRoboto;fontSize=10;rounded=1;fontColor=#FFFFFF;spacingLeft=11;spacingRight=11;" parent="1" vertex="1">
          <mxGeometry x="590" y="470" width="20" height="20" as="geometry" />
        </mxCell>
        <mxCell id="Mus7yZhnYwH2cR40hnjs-216" value="Covil de Pterafolk" style="rounded=1;whiteSpace=wrap;html=1;fillColor=#dae8fc;strokeColor=#6c8ebf;strokeWidth=2;fontFamily=Roboto;fontSource=https%3A%2F%2Ffonts.googleapis.com%2Fcss%3Ffamily%3DRoboto;" parent="1" vertex="1">
          <mxGeometry x="-40" y="560" width="120" height="40" as="geometry" />
        </mxCell>
        <mxCell id="Mus7yZhnYwH2cR40hnjs-222" style="edgeStyle=orthogonalEdgeStyle;rounded=0;orthogonalLoop=1;jettySize=auto;html=1;exitX=1;exitY=0.5;exitDx=0;exitDy=0;entryX=0;entryY=0.5;entryDx=0;entryDy=0;dashed=1;fontFamily=Roboto;fontSource=https%3A%2F%2Ffonts.googleapis.com%2Fcss%3Ffamily%3DRoboto;fontSize=16;fontColor=#FFFFFF;startArrow=none;startFill=0;strokeColor=#7EA6E0;strokeWidth=1;" parent="1" source="Mus7yZhnYwH2cR40hnjs-219" target="Mus7yZhnYwH2cR40hnjs-34" edge="1">
          <mxGeometry relative="1" as="geometry" />
        </mxCell>
        <mxCell id="Mus7yZhnYwH2cR40hnjs-223" style="edgeStyle=orthogonalEdgeStyle;rounded=0;orthogonalLoop=1;jettySize=auto;html=1;exitX=0.5;exitY=1;exitDx=0;exitDy=0;entryX=0;entryY=0.5;entryDx=0;entryDy=0;dashed=1;fontFamily=Roboto;fontSource=https%3A%2F%2Ffonts.googleapis.com%2Fcss%3Ffamily%3DRoboto;fontSize=16;fontColor=#FFFFFF;startArrow=none;startFill=0;strokeColor=#7EA6E0;strokeWidth=1;" parent="1" source="Mus7yZhnYwH2cR40hnjs-219" target="Mus7yZhnYwH2cR40hnjs-48" edge="1">
          <mxGeometry relative="1" as="geometry" />
        </mxCell>
        <mxCell id="Mus7yZhnYwH2cR40hnjs-219" value="Caverna dos neandertais" style="rounded=1;whiteSpace=wrap;html=1;fillColor=#dae8fc;strokeColor=#6c8ebf;strokeWidth=2;fontFamily=Roboto;fontSource=https%3A%2F%2Ffonts.googleapis.com%2Fcss%3Ffamily%3DRoboto;" parent="1" vertex="1">
          <mxGeometry x="-1280" y="320" width="120" height="40" as="geometry" />
        </mxCell>
        <mxCell id="Mus7yZhnYwH2cR40hnjs-255" style="edgeStyle=orthogonalEdgeStyle;rounded=0;orthogonalLoop=1;jettySize=auto;html=1;exitX=0.5;exitY=1;exitDx=0;exitDy=0;entryX=0.5;entryY=0;entryDx=0;entryDy=0;fontFamily=Roboto;fontSource=https%3A%2F%2Ffonts.googleapis.com%2Fcss%3Ffamily%3DRoboto;fontSize=16;fontColor=#FFFFFF;startArrow=none;endArrow=classic;strokeColor=#7EA6E0;strokeWidth=1;dashed=1;" parent="1" source="Mus7yZhnYwH2cR40hnjs-227" target="Mus7yZhnYwH2cR40hnjs-211" edge="1">
          <mxGeometry relative="1" as="geometry">
            <Array as="points">
              <mxPoint x="375" y="760" />
              <mxPoint x="-220" y="760" />
            </Array>
          </mxGeometry>
        </mxCell>
        <mxCell id="Mus7yZhnYwH2cR40hnjs-227" value="Puzzle" style="rounded=1;whiteSpace=wrap;html=1;fillColor=#76608a;strokeColor=#432D57;strokeWidth=2;fontColor=#ffffff;fontFamily=Roboto;fontSource=https%3A%2F%2Ffonts.googleapis.com%2Fcss%3Ffamily%3DRoboto;" parent="1" vertex="1">
          <mxGeometry x="320" y="480" width="110" height="20" as="geometry" />
        </mxCell>
        <mxCell id="Mus7yZhnYwH2cR40hnjs-259" style="edgeStyle=orthogonalEdgeStyle;rounded=0;orthogonalLoop=1;jettySize=auto;html=1;exitX=0.5;exitY=1;exitDx=0;exitDy=0;entryX=0;entryY=0.5;entryDx=0;entryDy=0;fontFamily=Roboto;fontSource=https%3A%2F%2Ffonts.googleapis.com%2Fcss%3Ffamily%3DRoboto;fontSize=16;fontColor=#FFFFFF;startArrow=none;endArrow=classic;strokeColor=#7EA6E0;strokeWidth=1;dashed=1;" parent="1" source="Mus7yZhnYwH2cR40hnjs-228" target="Mus7yZhnYwH2cR40hnjs-211" edge="1">
          <mxGeometry relative="1" as="geometry" />
        </mxCell>
        <mxCell id="Mus7yZhnYwH2cR40hnjs-228" value="Puzzle" style="rounded=1;whiteSpace=wrap;html=1;fillColor=#76608a;strokeColor=#432D57;strokeWidth=2;fontColor=#ffffff;fontFamily=Roboto;fontSource=https%3A%2F%2Ffonts.googleapis.com%2Fcss%3Ffamily%3DRoboto;" parent="1" vertex="1">
          <mxGeometry x="-440" y="480" width="110" height="20" as="geometry" />
        </mxCell>
        <mxCell id="Mus7yZhnYwH2cR40hnjs-229" value="4" style="ellipse;whiteSpace=wrap;html=1;aspect=fixed;shadow=0;glass=0;labelBackgroundColor=none;sketch=0;fillColor=#1F66B8;strokeColor=#007FFF;strokeWidth=2;fontFamily=Roboto;fontSource=https%3A%2F%2Ffonts.googleapis.com%2Fcss%3Ffamily%3DRoboto;fontSize=10;rounded=1;fontColor=#FFFFFF;spacingLeft=11;spacingRight=11;" parent="1" vertex="1">
          <mxGeometry x="-330" y="467" width="20" height="20" as="geometry" />
        </mxCell>
        <mxCell id="Mus7yZhnYwH2cR40hnjs-230" value="4" style="ellipse;whiteSpace=wrap;html=1;aspect=fixed;shadow=0;glass=0;labelBackgroundColor=none;sketch=0;fillColor=#1F66B8;strokeColor=#007FFF;strokeWidth=2;fontFamily=Roboto;fontSource=https%3A%2F%2Ffonts.googleapis.com%2Fcss%3Ffamily%3DRoboto;fontSize=10;rounded=1;fontColor=#FFFFFF;spacingLeft=11;spacingRight=11;" parent="1" vertex="1">
          <mxGeometry x="230" y="591" width="20" height="20" as="geometry" />
        </mxCell>
        <mxCell id="Mus7yZhnYwH2cR40hnjs-231" value="4" style="ellipse;whiteSpace=wrap;html=1;aspect=fixed;shadow=0;glass=0;labelBackgroundColor=none;sketch=0;fillColor=#1F66B8;strokeColor=#007FFF;strokeWidth=2;fontFamily=Roboto;fontSource=https%3A%2F%2Ffonts.googleapis.com%2Fcss%3Ffamily%3DRoboto;fontSize=10;rounded=1;fontColor=#FFFFFF;spacingLeft=11;spacingRight=11;" parent="1" vertex="1">
          <mxGeometry x="430" y="468" width="20" height="20" as="geometry" />
        </mxCell>
        <mxCell id="Mus7yZhnYwH2cR40hnjs-232" value="4" style="ellipse;whiteSpace=wrap;html=1;aspect=fixed;shadow=0;glass=0;labelBackgroundColor=none;sketch=0;fillColor=#1F66B8;strokeColor=#007FFF;strokeWidth=2;fontFamily=Roboto;fontSource=https%3A%2F%2Ffonts.googleapis.com%2Fcss%3Ffamily%3DRoboto;fontSize=10;rounded=1;fontColor=#FFFFFF;spacingLeft=11;spacingRight=11;" parent="1" vertex="1">
          <mxGeometry x="-230" y="869" width="20" height="20" as="geometry" />
        </mxCell>
        <mxCell id="Mus7yZhnYwH2cR40hnjs-256" style="edgeStyle=orthogonalEdgeStyle;rounded=0;orthogonalLoop=1;jettySize=auto;html=1;exitX=0.75;exitY=1;exitDx=0;exitDy=0;fontFamily=Roboto;fontSource=https%3A%2F%2Ffonts.googleapis.com%2Fcss%3Ffamily%3DRoboto;fontSize=16;fontColor=#FFFFFF;startArrow=none;endArrow=none;strokeColor=#7EA6E0;strokeWidth=1;dashed=1;endFill=0;" parent="1" source="Mus7yZhnYwH2cR40hnjs-239" edge="1">
          <mxGeometry relative="1" as="geometry">
            <mxPoint x="370" y="760" as="targetPoint" />
            <Array as="points">
              <mxPoint x="548" y="760" />
              <mxPoint x="380" y="760" />
            </Array>
          </mxGeometry>
        </mxCell>
        <mxCell id="Mus7yZhnYwH2cR40hnjs-243" value="&lt;font color=&quot;#ffffff&quot;&gt;Ras Nsi quer trazer Dendar de volta&lt;/font&gt;" style="rounded=1;whiteSpace=wrap;html=1;shadow=0;glass=0;labelBackgroundColor=none;sketch=0;fontFamily=Roboto;fillColor=#f0a30a;spacingLeft=11;spacingRight=11;strokeColor=#BD7000;fontColor=#000000;strokeWidth=2;fontSource=https%3A%2F%2Ffonts.googleapis.com%2Fcss%3Ffamily%3DRoboto;" parent="1" vertex="1">
          <mxGeometry x="1655.5" y="609.5" width="139" height="50" as="geometry" />
        </mxCell>
        <mxCell id="Mus7yZhnYwH2cR40hnjs-244" value="5" style="ellipse;whiteSpace=wrap;html=1;aspect=fixed;shadow=0;glass=0;labelBackgroundColor=none;sketch=0;fillColor=#ffe6cc;strokeColor=#d79b00;strokeWidth=2;fontFamily=Roboto;fontSource=https%3A%2F%2Ffonts.googleapis.com%2Fcss%3Ffamily%3DRoboto;fontSize=10;" parent="1" vertex="1">
          <mxGeometry x="1648.5" y="601.5" width="20" height="20" as="geometry" />
        </mxCell>
        <mxCell id="Mus7yZhnYwH2cR40hnjs-245" value="5" style="ellipse;whiteSpace=wrap;html=1;aspect=fixed;shadow=0;glass=0;labelBackgroundColor=none;sketch=0;fillColor=#f0a30a;strokeColor=#BD7000;strokeWidth=2;fontFamily=Roboto;fontSource=https%3A%2F%2Ffonts.googleapis.com%2Fcss%3Ffamily%3DRoboto;fontSize=10;fontColor=#FFFFFF;" parent="1" vertex="1">
          <mxGeometry x="711" y="549.75" width="20" height="20" as="geometry" />
        </mxCell>
        <mxCell id="Mus7yZhnYwH2cR40hnjs-246" value="B" style="ellipse;whiteSpace=wrap;html=1;aspect=fixed;shadow=0;glass=0;labelBackgroundColor=none;sketch=0;fillColor=#d80073;strokeColor=#A50040;strokeWidth=2;fontFamily=Roboto;fontSource=https%3A%2F%2Ffonts.googleapis.com%2Fcss%3Ffamily%3DRoboto;fontSize=10;fontColor=#ffffff;" parent="1" vertex="1">
          <mxGeometry x="751" y="549.75" width="20" height="20" as="geometry" />
        </mxCell>
        <mxCell id="9_sNKZ55_7l1igq3uqOG-4" value="1" style="ellipse;whiteSpace=wrap;html=1;aspect=fixed;shadow=0;glass=0;labelBackgroundColor=none;sketch=0;fillColor=#a20025;strokeColor=#6F0000;strokeWidth=2;fontFamily=Roboto;fontSource=https%3A%2F%2Ffonts.googleapis.com%2Fcss%3Ffamily%3DRoboto;fontSize=10;fontColor=#ffffff;" vertex="1" parent="1">
          <mxGeometry x="-910" y="467" width="20" height="20" as="geometry" />
        </mxCell>
        <mxCell id="9_sNKZ55_7l1igq3uqOG-3" value="4" style="ellipse;whiteSpace=wrap;html=1;aspect=fixed;shadow=0;glass=0;labelBackgroundColor=none;sketch=0;fillColor=#1F66B8;strokeColor=#007FFF;strokeWidth=2;fontFamily=Roboto;fontSource=https%3A%2F%2Ffonts.googleapis.com%2Fcss%3Ffamily%3DRoboto;fontSize=10;rounded=1;fontColor=#FFFFFF;spacingLeft=11;spacingRight=11;" vertex="1" parent="1">
          <mxGeometry x="-890" y="467" width="20" height="20" as="geometry" />
        </mxCell>
        <mxCell id="9_sNKZ55_7l1igq3uqOG-5" value="6" style="ellipse;whiteSpace=wrap;html=1;aspect=fixed;shadow=0;glass=0;labelBackgroundColor=none;sketch=0;fillColor=#a20025;strokeColor=#6F0000;strokeWidth=2;fontFamily=Roboto;fontSource=https%3A%2F%2Ffonts.googleapis.com%2Fcss%3Ffamily%3DRoboto;fontSize=10;fontColor=#ffffff;" vertex="1" parent="1">
          <mxGeometry x="590" y="350" width="20" height="20" as="geometry" />
        </mxCell>
        <mxCell id="9_sNKZ55_7l1igq3uqOG-6" value="1" style="ellipse;whiteSpace=wrap;html=1;aspect=fixed;shadow=0;glass=0;labelBackgroundColor=none;sketch=0;fillColor=#f0a30a;strokeColor=#BD7000;strokeWidth=2;fontFamily=Roboto;fontSource=https%3A%2F%2Ffonts.googleapis.com%2Fcss%3Ffamily%3DRoboto;fontSize=10;fontColor=#FFFFFF;" vertex="1" parent="1">
          <mxGeometry x="-210" y="869" width="20" height="20" as="geometry" />
        </mxCell>
        <mxCell id="9_sNKZ55_7l1igq3uqOG-7" value="4" style="ellipse;whiteSpace=wrap;html=1;aspect=fixed;shadow=0;glass=0;labelBackgroundColor=none;sketch=0;fillColor=#f0a30a;strokeColor=#BD7000;strokeWidth=2;fontFamily=Roboto;fontSource=https%3A%2F%2Ffonts.googleapis.com%2Fcss%3Ffamily%3DRoboto;fontSize=10;fontColor=#FFFFFF;" vertex="1" parent="1">
          <mxGeometry x="-190" y="869" width="20" height="20" as="geometry" />
        </mxCell>
        <mxCell id="9_sNKZ55_7l1igq3uqOG-8" value="5" style="ellipse;whiteSpace=wrap;html=1;aspect=fixed;shadow=0;glass=0;labelBackgroundColor=none;sketch=0;fillColor=#f0a30a;strokeColor=#BD7000;strokeWidth=2;fontFamily=Roboto;fontSource=https%3A%2F%2Ffonts.googleapis.com%2Fcss%3Ffamily%3DRoboto;fontSize=10;fontColor=#FFFFFF;" vertex="1" parent="1">
          <mxGeometry x="-170" y="869" width="20" height="20" as="geometry" />
        </mxCell>
        <mxCell id="9_sNKZ55_7l1igq3uqOG-11" value="" style="rounded=0;whiteSpace=wrap;html=1;shadow=0;glass=0;dashed=1;labelBackgroundColor=none;sketch=0;fontFamily=Roboto;fontSource=https%3A%2F%2Ffonts.googleapis.com%2Fcss%3Ffamily%3DRoboto;fontSize=10;fontColor=#ffffff;strokeColor=#B20000;strokeWidth=2;fillColor=none;" vertex="1" parent="1">
          <mxGeometry x="1850" y="170" width="190" height="280" as="geometry" />
        </mxCell>
        <mxCell id="9_sNKZ55_7l1igq3uqOG-13" style="edgeStyle=orthogonalEdgeStyle;rounded=0;orthogonalLoop=1;jettySize=auto;html=1;exitX=0.5;exitY=1;exitDx=0;exitDy=0;entryX=0.5;entryY=0;entryDx=0;entryDy=0;dashed=1;fontColor=#000000;endArrow=classic;strokeWidth=1;fontFamily=Roboto;fontSource=https%3A%2F%2Ffonts.googleapis.com%2Fcss%3Ffamily%3DRoboto;fontSize=16;strokeColor=#7EA6E0;" edge="1" parent="1" source="9_sNKZ55_7l1igq3uqOG-12" target="Mus7yZhnYwH2cR40hnjs-32">
          <mxGeometry relative="1" as="geometry" />
        </mxCell>
        <mxCell id="9_sNKZ55_7l1igq3uqOG-12" value="Guia Chwinga" style="rounded=1;whiteSpace=wrap;html=1;fillColor=#76608a;strokeColor=#432D57;strokeWidth=2;fontColor=#ffffff;fontFamily=Roboto;fontSource=https%3A%2F%2Ffonts.googleapis.com%2Fcss%3Ffamily%3DRoboto;" vertex="1" parent="1">
          <mxGeometry x="-1000" y="119.5" width="120" height="40" as="geometry" />
        </mxCell>
        <mxCell id="Mus7yZhnYwH2cR40hnjs-239" value="Puzzle" style="rounded=1;whiteSpace=wrap;html=1;fillColor=#76608a;strokeColor=#432D57;strokeWidth=2;fontColor=#ffffff;fontFamily=Roboto;fontSource=https%3A%2F%2Ffonts.googleapis.com%2Fcss%3Ffamily%3DRoboto;" parent="1" vertex="1">
          <mxGeometry x="480" y="478" width="90" height="20" as="geometry" />
        </mxCell>
        <mxCell id="Mus7yZhnYwH2cR40hnjs-108" value="3" style="ellipse;whiteSpace=wrap;html=1;aspect=fixed;shadow=0;glass=0;labelBackgroundColor=none;sketch=0;fillColor=#1F66B8;strokeColor=#007FFF;rounded=1;spacingLeft=11;spacingRight=11;fontColor=#FFFFFF;fontFamily=Roboto;fontSource=https%3A%2F%2Ffonts.googleapis.com%2Fcss%3Ffamily%3DRoboto;strokeWidth=2;fontSize=10;" parent="1" vertex="1">
          <mxGeometry x="570" y="470" width="20" height="20" as="geometry" />
        </mxCell>
        <mxCell id="9_sNKZ55_7l1igq3uqOG-18" style="edgeStyle=orthogonalEdgeStyle;rounded=0;orthogonalLoop=1;jettySize=auto;html=1;exitX=0.5;exitY=1;exitDx=0;exitDy=0;entryX=0.5;entryY=0;entryDx=0;entryDy=0;dashed=1;fontColor=#FFFFFF;startArrow=none;endArrow=classic;strokeWidth=3;dashPattern=1 2;strokeColor=#FF0080;fontFamily=Roboto;fontSource=https%3A%2F%2Ffonts.googleapis.com%2Fcss%3Ffamily%3DRoboto;" edge="1" parent="1" source="9_sNKZ55_7l1igq3uqOG-16" target="Mus7yZhnYwH2cR40hnjs-181">
          <mxGeometry relative="1" as="geometry" />
        </mxCell>
        <mxCell id="9_sNKZ55_7l1igq3uqOG-16" value="Lago do Plesiossauro" style="rounded=1;whiteSpace=wrap;html=1;fillColor=#dae8fc;strokeColor=#6c8ebf;strokeWidth=2;fontFamily=Roboto;fontSource=https%3A%2F%2Ffonts.googleapis.com%2Fcss%3Ffamily%3DRoboto;spacing=10;" vertex="1" parent="1">
          <mxGeometry x="400" y="600" width="120" height="40" as="geometry" />
        </mxCell>
        <mxCell id="9_sNKZ55_7l1igq3uqOG-19" value="B" style="ellipse;whiteSpace=wrap;html=1;aspect=fixed;shadow=0;glass=0;labelBackgroundColor=none;sketch=0;fillColor=#d80073;strokeColor=#A50040;strokeWidth=2;fontFamily=Roboto;fontSource=https%3A%2F%2Ffonts.googleapis.com%2Fcss%3Ffamily%3DRoboto;fontSize=10;fontColor=#ffffff;" vertex="1" parent="1">
          <mxGeometry x="420" y="490" width="20" height="20" as="geometry" />
        </mxCell>
        <mxCell id="9_sNKZ55_7l1igq3uqOG-20" value="B" style="ellipse;whiteSpace=wrap;html=1;aspect=fixed;shadow=0;glass=0;labelBackgroundColor=none;sketch=0;fillColor=#d80073;strokeColor=#A50040;strokeWidth=2;fontFamily=Roboto;fontSource=https%3A%2F%2Ffonts.googleapis.com%2Fcss%3Ffamily%3DRoboto;fontSize=10;fontColor=#ffffff;" vertex="1" parent="1">
          <mxGeometry x="560" y="490" width="20" height="20" as="geometry" />
        </mxCell>
        <mxCell id="9_sNKZ55_7l1igq3uqOG-22" value="B" style="ellipse;whiteSpace=wrap;html=1;aspect=fixed;shadow=0;glass=0;labelBackgroundColor=none;sketch=0;fillColor=#d80073;strokeColor=#A50040;strokeWidth=2;fontFamily=Roboto;fontSource=https%3A%2F%2Ffonts.googleapis.com%2Fcss%3Ffamily%3DRoboto;fontSize=10;fontColor=#ffffff;" vertex="1" parent="1">
          <mxGeometry x="-340" y="490" width="20" height="20" as="geometry" />
        </mxCell>
      </root>
    </mxGraphModel>
  </diagram>
</mxfile>
